# Blender v2.77 (sub 0) OBJ File: ''
# www.blender.org
mtllib EVA Helmet Visor.mtl
o visor_eva.001
v 5.663000 -1.723526 -1.569072
v 5.447400 -2.326427 -1.440166
v 4.708300 -1.798927 -1.891460
v 6.432900 -2.175724 -1.053325
v 6.155700 -2.853924 -0.859966
v 5.786200 -0.668525 -1.569072
v 4.893100 -1.271427 -2.020365
v 6.217300 -0.819328 -1.053324
v 3.414900 -0.141029 -2.794047
v 3.938500 0.084977 -2.794047
v 5.447400 -0.291824 -1.891459
v 6.309700 0.160378 -1.504617
v 6.740800 0.009674 -1.117777
v 5.970900 0.838578 -2.020364
v 6.864000 0.913872 -1.375711
v 4.492800 0.386376 -2.665139
v 3.846100 1.516778 -3.245339
v 3.199400 1.139978 -3.309793
v 2.706700 0.763177 -3.180886
v 2.275500 1.818178 -3.825540
v 2.090800 1.441377 -3.632180
v 5.201100 1.818177 -2.536111
v 4.769900 2.797776 -2.665138
v 3.291800 2.647073 -3.503151
v 6.001700 1.893578 -1.955911
v 5.539800 2.873177 -2.084816
v 6.802400 1.968872 -1.440164
v 6.402100 2.948578 -1.440163
v 5.047100 3.475976 -2.084816
v 6.063300 3.475975 -1.440162
v 4.308000 3.325273 -2.600564
v 2.953000 3.475976 -3.245338
v 4.554400 4.078874 -2.084816
v 3.722900 3.928178 -2.536110
v 5.539800 4.078874 -1.504615
v 4.215600 4.530975 -1.891456
v 5.016300 4.530975 -1.440162
v 3.384200 4.681778 -2.149269
v 2.645100 4.154274 -2.922950
v 4.154000 5.058472 -1.440162
v 2.491100 4.606378 -2.600562
v 2.306300 5.133873 -2.149269
v 3.199400 5.359979 -1.504615
v 2.152400 5.435273 -1.633521
v 3.384200 4.681777 2.170189
v 3.199400 5.359978 1.589990
v 2.306300 5.133873 2.234644
v 2.491100 4.606376 2.685937
v 2.152400 5.435272 1.718896
v 3.722900 3.928175 2.557030
v 2.645100 4.154274 3.008324
v 4.215600 4.530974 1.912377
v 4.154000 5.058472 1.525536
v 2.953000 3.475975 3.266258
v 4.308000 3.325270 2.685935
v 4.554400 4.078873 2.170189
v 5.016300 4.530974 1.525536
v 5.047100 3.475975 2.170188
v 5.539800 4.078873 1.589989
v 3.291800 2.647070 3.588523
v 4.769900 2.797775 2.685935
v 5.539800 2.873176 2.105736
v 6.063300 3.475975 1.525536
v 3.846100 1.516777 3.266257
v 5.201100 1.818176 2.621482
v 2.275500 1.818175 3.846458
v 3.938500 0.084976 2.879416
v 4.492800 0.386375 2.685935
v 3.230200 1.139975 3.395163
v 5.970900 0.838577 2.041282
v 6.001700 1.893577 2.041282
v 6.402100 2.948578 1.525535
v 6.864000 0.913872 1.461081
v 6.802400 1.968872 1.525535
v 5.447400 -0.291825 1.976828
v 6.309700 0.160377 1.589988
v 4.893100 -1.271427 2.105732
v 5.786200 -0.668526 1.589985
v 3.414900 -0.141030 2.814962
v 5.663000 -1.723526 1.654438
v 4.708300 -1.798928 1.976826
v 6.217300 -0.819329 1.138692
v 6.740800 0.009674 1.138693
v 6.432900 -2.175724 1.074238
v 5.447400 -2.326428 1.525532
v 6.155700 -2.853924 0.945210
v 2.706700 0.763174 3.266257
v 2.090800 1.441374 3.717551
v 3.322600 5.736671 0.880763
v 3.414900 5.736671 0.042628
v 4.400400 5.359978 0.816308
v 1.721200 5.736671 0.042628
v 1.875200 5.661377 1.009791
v 4.492800 5.510674 0.042626
v 5.385800 4.832474 0.816308
v 4.400400 5.359978 -0.795387
v 3.322600 5.736671 -0.795385
v 1.875200 5.661377 -0.924414
v 5.385800 4.832474 -0.795387
v 5.509000 4.983177 0.042626
v 6.063300 4.304977 -0.795387
v 6.248100 4.455673 0.042626
v 6.063300 4.304977 0.880761
v 6.679200 3.626778 -0.795387
v 6.679200 3.626778 0.816307
v 6.925600 3.702072 0.042626
v 7.018000 3.023872 0.816306
v 7.233500 3.023872 0.042625
v 7.018000 3.023872 -0.730935
v 7.295100 1.968872 -0.730935
v 7.510700 1.968872 0.042625
v 7.295100 1.968872 0.751853
v 7.510700 1.064575 0.042624
v 7.325900 0.989273 0.816306
v 7.325900 0.989273 -0.730935
v 7.048800 -0.141029 -0.537576
v 7.048800 -0.141029 0.622946
v 7.141100 -0.216423 0.042624
v 6.648400 -1.120724 0.558491
v 6.648400 -1.120724 -0.537578
v 6.833200 -1.196026 0.042622
v 6.802400 -2.401726 -0.537578
v 6.956400 -2.552525 0.042622
v 6.802400 -2.401726 0.622944
v 6.402100 -3.079926 0.493915
v 6.432900 -3.079926 -0.473126
v 6.617600 -3.155327 0.042621
vt 3.7130 1.0829
vt 3.6962 1.0509
vt 3.6531 1.0937
vt 3.7597 1.0469
vt 3.7403 1.0071
vt 3.7365 1.1440
vt 3.6695 1.1244
vt 3.7719 1.1187
vt 3.5915 1.2087
vt 3.6219 1.2190
vt 3.7093 1.1711
vt 3.7710 1.1826
vt 3.8011 1.1622
vt 3.7493 1.2283
vt 3.8075 1.2157
vt 3.6553 1.2272
vt 3.6284 1.3047
vt 3.5892 1.2935
vt 3.5574 1.2740
vt 3.5367 1.3476
vt 3.5274 1.3225
vt 3.7136 1.2936
vt 3.7069 1.3524
vt 3.6151 1.3800
vt 3.7674 1.2831
vt 3.7603 1.3424
vt 3.8209 1.2702
vt 3.8190 1.3271
vt 3.7508 1.3832
vt 3.8145 1.3586
vt 3.7016 1.3973
vt 3.6304 1.4399
vt 3.7469 1.4276
vt 3.6974 1.4464
vt 3.8060 1.3991
vt 3.7520 1.4602
vt 3.7979 1.4368
vt 3.7182 1.4957
vt 3.6489 1.4901
vt 3.7787 1.4879
vt 3.6667 1.5230
vt 3.6917 1.5566
vt 3.7528 1.5363
vt 3.7196 1.5856
vt 3.7182 0.4957
vt 3.7528 0.5363
vt 3.6917 0.5566
vt 3.6667 0.5231
vt 3.7196 0.5855
vt 3.6974 0.4463
vt 3.6489 0.4901
vt 3.7520 0.4602
vt 3.7787 0.4879
vt 3.6304 0.4398
vt 3.7016 0.3973
vt 3.7469 0.4275
vt 3.7979 0.4368
vt 3.7508 0.3832
vt 3.8060 0.3992
vt 3.6151 0.3800
vt 3.7069 0.3524
vt 3.7603 0.3424
vt 3.8145 0.3586
vt 3.6284 0.3048
vt 3.7136 0.2936
vt 3.5367 0.3476
vt 3.6219 0.2190
vt 3.6553 0.2271
vt 3.5892 0.2935
vt 3.7493 0.2284
vt 3.7674 0.2830
vt 3.8190 0.3270
vt 3.8075 0.2157
vt 3.8209 0.2701
vt 3.7093 0.1711
vt 3.7710 0.1825
vt 3.6695 0.1244
vt 3.7365 0.1440
vt 3.5915 0.2087
vt 3.7130 0.0830
vt 3.6531 0.0937
vt 3.7719 0.1188
vt 3.8011 0.1621
vt 3.7597 0.0469
vt 3.6962 0.0509
vt 3.7403 0.0071
vt 3.5574 0.2741
vt 3.5274 0.3225
vt 3.8714 0.5235
vt 3.8335 0.5256
vt 3.8342 0.4769
vt 3.8298 0.5755
vt 3.9096 0.5184
vt 3.8707 0.4718
vt 3.9105 0.5978
vt 3.8636 0.5896
vt 3.8320 0.4281
vt 3.9089 0.4687
vt 3.8691 0.4198
vt 3.9473 0.4711
vt 3.9477 0.5227
vt 3.9571 0.5886
vt 3.9909 0.5735
vt 3.9856 0.5238
vt 3.9839 0.4753
vt 3.9479 0.4189
vt 3.9850 0.4264
vt 3.9084 0.4196
vt 3.9477 0.3817
vt 3.9882 0.3896
vt 3.9080 0.3804
vt 3.8684 0.3825
vt 3.9466 0.3398
vt 3.9882 0.3491
vt 3.8688 0.3406
vt 3.9076 0.3365
vt 3.8273 0.3506
vt 3.8281 0.3911
vt 3.8696 0.3079
vt 3.8282 0.3172
vt 3.9074 0.3032
vt 3.9451 0.3072
vt 3.9867 0.3157
vt 3.9424 0.2602
vt 3.9805 0.2625
vt 3.9070 0.2589
vt 3.8716 0.2608
vt 3.8334 0.2638
vt 3.9066 0.2184
vt 3.8714 0.2162
vt 3.9417 0.2155
vt 3.9788 0.2103
vt 3.9338 0.1611
vt 3.9633 0.1650
vt 3.8784 0.1616
vt 3.9061 0.1562
vt 3.8488 0.1660
vt 3.8342 0.2116
vt 3.8757 0.1161
vt 3.8432 0.1234
vt 3.9356 0.1155
vt 3.9057 0.1129
vt 3.9682 0.1223
vt 3.9310 0.0534
vt 3.9591 0.0626
vt 3.9051 0.0494
vt 3.8793 0.0539
vt 3.8513 0.0635
vt 3.8791 0.0173
vt 3.8530 0.0258
vt 3.9305 0.0169
vt 3.9048 0.0173
vt 3.9568 0.0248
vn 0.4791 -0.1624 -0.8626
vn 0.3642 -0.3343 -0.8692
vn 0.2986 -0.3188 -0.8996
vn 0.6494 -0.1613 -0.7432
vn 0.5374 -0.4136 -0.7349
vn 0.6075 -0.2049 -0.7674
vn 0.3713 -0.2414 -0.8966
vn 0.7038 -0.1791 -0.6874
vn 0.1477 -0.3649 -0.9193
vn 0.2700 -0.3262 -0.9059
vn 0.4973 -0.2521 -0.8302
vn 0.5614 -0.3252 -0.7610
vn 0.6862 -0.3680 -0.6275
vn 0.5351 -0.1574 -0.8300
vn 0.7048 -0.1369 -0.6961
vn 0.4179 -0.2746 -0.8660
vn 0.3894 -0.1293 -0.9119
vn 0.1901 -0.3552 -0.9153
vn 0.0821 -0.4171 -0.9052
vn 0.2222 -0.3254 -0.9191
vn 0.1183 -0.4892 -0.8641
vn 0.5143 0.0203 -0.8574
vn 0.4900 0.2800 -0.8255
vn 0.4242 0.1697 -0.8895
vn 0.5667 0.0994 -0.8179
vn 0.5489 0.2830 -0.7865
vn 0.6825 0.1191 -0.7211
vn 0.6179 0.2967 -0.7281
vn 0.4828 0.4025 -0.7778
vn 0.5651 0.4120 -0.7148
vn 0.4177 0.4482 -0.7904
vn 0.4084 0.4801 -0.7763
vn 0.4031 0.4970 -0.7684
vn 0.3762 0.5141 -0.7708
vn 0.5163 0.5065 -0.6906
vn 0.3528 0.5985 -0.7192
vn 0.4280 0.6491 -0.6289
vn 0.3194 0.6305 -0.7074
vn 0.3591 0.5678 -0.7407
vn 0.3495 0.7277 -0.5902
vn 0.2992 0.6481 -0.7004
vn 0.2266 0.7684 -0.5985
vn 0.2253 0.8010 -0.5546
vn 0.0653 0.9080 -0.4138
vn 0.3360 0.6143 0.7140
vn 0.2296 0.7903 0.5680
vn 0.2478 0.7602 0.6006
vn 0.3396 0.6471 0.6826
vn 0.0653 0.9080 0.4138
vn 0.3589 0.5323 0.7667
vn 0.3987 0.5501 0.7338
vn 0.3230 0.5939 0.7369
vn 0.3544 0.7162 0.6012
vn 0.4025 0.4868 0.7752
vn 0.4162 0.4367 0.7975
vn 0.3668 0.5223 0.7699
vn 0.4277 0.6609 0.6167
vn 0.4926 0.3704 0.7875
vn 0.5159 0.5144 0.6850
vn 0.4263 0.1473 0.8925
vn 0.4984 0.2601 0.8270
vn 0.5379 0.2719 0.7980
vn 0.5735 0.4005 0.7146
vn 0.4059 -0.1142 0.9068
vn 0.5019 0.0240 0.8646
vn 0.2386 -0.2662 0.9339
vn 0.2534 -0.3299 0.9094
vn 0.4417 -0.2277 0.8678
vn 0.2219 -0.3062 0.9257
vn 0.5168 -0.1620 0.8407
vn 0.5556 0.0957 0.8259
vn 0.6080 0.3076 0.7319
vn 0.6979 -0.1518 0.6999
vn 0.6908 0.1201 0.7130
vn 0.5127 -0.2517 0.8209
vn 0.5681 -0.3225 0.7572
vn 0.3693 -0.2387 0.8981
vn 0.6072 -0.2148 0.7650
vn 0.0824 -0.4132 0.9069
vn 0.4943 -0.1577 0.8549
vn 0.2890 -0.3164 0.9035
vn 0.7021 -0.1824 0.6883
vn 0.6979 -0.3627 0.6176
vn 0.6560 -0.1355 0.7425
vn 0.3927 -0.3249 0.8604
vn 0.5578 -0.4072 0.7232
vn 0.0944 -0.4371 0.8944
vn 0.1461 -0.4105 0.9001
vn 0.1721 0.9554 0.2401
vn 0.1523 0.9883 0.0007
vn 0.3743 0.8657 0.3323
vn -0.0292 0.9996 -0.0000
vn -0.0344 0.9818 0.1869
vn 0.3431 0.9393 0.0081
vn 0.4923 0.7778 0.3909
vn 0.3678 0.8629 -0.3466
vn 0.1688 0.9561 -0.2397
vn -0.0344 0.9818 -0.1869
vn 0.4990 0.7680 -0.4014
vn 0.5301 0.8479 0.0066
vn 0.6151 0.6530 -0.4418
vn 0.6694 0.7429 0.0026
vn 0.6146 0.6514 0.4450
vn 0.7217 0.4994 -0.4794
vn 0.7240 0.5096 0.4648
vn 0.8323 0.5543 0.0074
vn 0.8310 0.3304 0.4475
vn 0.9447 0.3280 0.0024
vn 0.8363 0.3234 -0.4428
vn 0.9014 0.1257 -0.4142
vn 0.9921 0.1253 0.0113
vn 0.9082 0.1286 0.3982
vn 0.9933 -0.1152 0.0026
vn 0.9076 -0.1211 0.4020
vn 0.9086 -0.1236 -0.3991
vn 0.8647 -0.3403 -0.3695
vn 0.8568 -0.3413 0.3865
vn 0.9475 -0.3199 0.0021
vn 0.8695 -0.0885 0.4859
vn 0.8669 -0.0749 -0.4927
vn 0.9968 -0.0789 0.0159
vn 0.8633 -0.1897 -0.4677
vn 0.9666 -0.2562 0.0108
vn 0.8516 -0.1975 0.4856
vn 0.7227 -0.4874 0.4901
vn 0.7365 -0.4439 -0.5104
vn 0.8705 -0.4893 0.0524
usemtl wire_198225087.000
s 1
f 1/1/1 2/2/2 3/3/3
f 2/2/2 1/1/1 4/4/4
f 2/2/2 4/4/4 5/5/5
f 6/6/6 1/1/1 7/7/7
f 1/1/1 3/3/3 7/7/7
f 8/8/8 1/1/1 6/6/6
f 4/4/4 1/1/1 8/8/8
f 7/7/7 3/3/3 9/9/9
f 10/10/10 11/11/11 7/7/7
f 7/7/7 9/9/9 10/10/10
f 11/11/11 6/6/6 7/7/7
f 11/11/11 12/12/12 6/6/6
f 12/12/12 8/8/8 6/6/6
f 8/8/8 12/12/12 13/13/13
f 14/14/14 12/12/12 11/11/11
f 14/14/14 15/15/15 12/12/12
f 13/13/13 12/12/12 15/15/15
f 16/16/16 11/11/11 10/10/10
f 11/11/11 16/16/16 14/14/14
f 10/10/10 17/17/17 16/16/16
f 18/18/18 17/17/17 10/10/10
f 10/10/10 9/9/9 18/18/18
f 9/9/9 19/19/19 18/18/18
f 17/17/17 18/18/18 20/20/20
f 18/18/18 21/21/21 20/20/20
f 18/18/18 19/19/19 21/21/21
f 22/22/22 16/16/16 17/17/17
f 17/17/17 23/23/23 22/22/22
f 17/17/17 24/24/24 23/23/23
f 20/20/20 24/24/24 17/17/17
f 22/22/22 14/14/14 16/16/16
f 25/25/25 14/14/14 22/22/22
f 26/26/26 22/22/22 23/23/23
f 26/26/26 25/25/25 22/22/22
f 25/25/25 15/15/15 14/14/14
f 15/15/15 25/25/25 27/27/27
f 28/28/28 25/25/25 26/26/26
f 27/27/27 25/25/25 28/28/28
f 23/23/23 29/29/29 26/26/26
f 30/30/30 26/26/26 29/29/29
f 28/28/28 26/26/26 30/30/30
f 23/23/23 24/24/24 31/31/31
f 31/31/31 29/29/29 23/23/23
f 32/32/32 31/31/31 24/24/24
f 31/31/31 33/33/33 29/29/29
f 33/33/33 31/31/31 34/34/34
f 32/32/32 34/34/34 31/31/31
f 35/35/35 29/29/29 33/33/33
f 30/30/30 29/29/29 35/35/35
f 36/36/36 33/33/33 34/34/34
f 36/36/36 37/37/37 33/33/33
f 35/35/35 33/33/33 37/37/37
f 38/38/38 36/36/36 34/34/34
f 39/39/39 38/38/38 34/34/34
f 39/39/39 34/34/34 32/32/32
f 38/38/38 40/40/40 36/36/36
f 37/37/37 36/36/36 40/40/40
f 41/41/41 38/38/38 39/39/39
f 42/42/42 38/38/38 41/41/41
f 42/42/42 43/43/43 38/38/38
f 40/40/40 38/38/38 43/43/43
f 43/43/43 42/42/42 44/44/44
f 45/45/45 46/46/46 47/47/47
f 47/47/47 48/48/48 45/45/45
f 47/47/47 46/46/46 49/49/49
f 50/50/50 45/45/45 51/51/51
f 50/50/50 52/52/52 45/45/45
f 52/52/52 53/53/53 45/45/45
f 46/46/46 45/45/45 53/53/53
f 45/45/45 48/48/48 51/51/51
f 50/50/50 54/54/54 55/55/55
f 50/50/50 51/51/51 54/54/54
f 50/50/50 55/55/55 56/56/56
f 56/56/56 52/52/52 50/50/50
f 56/56/56 57/57/57 52/52/52
f 53/53/53 52/52/52 57/57/57
f 58/58/58 56/56/56 55/55/55
f 58/58/58 59/59/59 56/56/56
f 57/57/57 56/56/56 59/59/59
f 55/55/55 60/60/60 61/61/61
f 55/55/55 54/54/54 60/60/60
f 55/55/55 61/61/61 58/58/58
f 62/62/62 58/58/58 61/61/61
f 62/62/62 63/63/63 58/58/58
f 59/59/59 58/58/58 63/63/63
f 64/64/64 65/65/65 61/61/61
f 61/61/61 60/60/60 64/64/64
f 61/61/61 65/65/65 62/62/62
f 60/60/60 66/66/66 64/64/64
f 64/64/64 67/67/67 68/68/68
f 65/65/65 64/64/64 68/68/68
f 69/69/69 67/67/67 64/64/64
f 64/64/64 66/66/66 69/69/69
f 65/65/65 68/68/68 70/70/70
f 65/65/65 70/70/70 71/71/71
f 71/71/71 62/62/62 65/65/65
f 71/71/71 72/72/72 62/62/62
f 63/63/63 62/62/62 72/72/72
f 70/70/70 73/73/73 71/71/71
f 74/74/74 71/71/71 73/73/73
f 72/72/72 71/71/71 74/74/74
f 70/70/70 68/68/68 75/75/75
f 75/75/75 76/76/76 70/70/70
f 73/73/73 70/70/70 76/76/76
f 68/68/68 67/67/67 75/75/75
f 67/67/67 77/77/77 75/75/75
f 77/77/77 78/78/78 75/75/75
f 78/78/78 76/76/76 75/75/75
f 67/67/67 79/79/79 77/77/77
f 69/69/69 79/79/79 67/67/67
f 80/80/80 78/78/78 77/77/77
f 81/81/81 80/80/80 77/77/77
f 81/81/81 77/77/77 79/79/79
f 82/82/82 76/76/76 78/78/78
f 78/78/78 80/80/80 82/82/82
f 83/83/83 76/76/76 82/82/82
f 73/73/73 76/76/76 83/83/83
f 82/82/82 80/80/80 84/84/84
f 85/85/85 80/80/80 81/81/81
f 84/84/84 80/80/80 85/85/85
f 84/84/84 85/85/85 86/86/86
f 79/79/79 69/69/69 87/87/87
f 88/88/88 69/69/69 66/66/66
f 87/87/87 69/69/69 88/88/88
f 89/89/89 46/90/46 53/91/53
f 46/90/46 89/89/89 49/92/49
f 90/93/90 89/89/89 91/94/91
f 92/95/92 89/89/89 90/93/90
f 91/94/91 89/89/89 53/91/53
f 93/96/93 89/89/89 92/95/92
f 49/92/49 89/89/89 93/96/93
f 53/91/53 57/97/57 91/94/91
f 94/98/94 91/94/91 95/99/95
f 90/93/90 91/94/91 94/98/94
f 95/99/95 91/94/91 57/97/57
f 96/100/96 90/93/90 94/98/94
f 97/101/97 90/93/90 96/100/96
f 90/93/90 97/101/97 92/95/92
f 97/101/97 98/102/98 92/95/92
f 97/101/97 44/103/44 98/102/98
f 97/101/97 43/104/43 44/103/44
f 40/105/40 97/101/97 96/100/96
f 40/105/40 43/104/43 97/101/97
f 94/98/94 99/106/99 96/100/96
f 37/107/37 96/100/96 99/106/99
f 37/107/37 40/105/40 96/100/96
f 100/108/100 99/106/99 94/98/94
f 100/108/100 94/98/94 95/99/95
f 99/106/99 100/108/100 101/109/101
f 35/110/35 99/106/99 101/109/101
f 35/110/35 37/107/37 99/106/99
f 102/111/102 101/109/101 100/108/100
f 100/108/100 103/112/103 102/111/102
f 95/99/95 103/112/103 100/108/100
f 101/109/101 102/111/102 104/113/104
f 30/114/30 101/109/101 104/113/104
f 30/114/30 35/110/35 101/109/101
f 102/111/102 105/115/105 106/116/106
f 106/116/106 104/113/104 102/111/102
f 103/112/103 105/115/105 102/111/102
f 105/115/105 103/112/103 63/117/63
f 103/112/103 95/99/95 59/118/59
f 59/118/59 63/117/63 103/112/103
f 107/119/107 106/116/106 105/115/105
f 105/115/105 72/120/72 107/119/107
f 63/117/63 72/120/72 105/115/105
f 108/121/108 106/116/106 107/119/107
f 109/122/109 106/116/106 108/121/108
f 104/113/104 106/116/106 109/122/109
f 28/123/28 104/113/104 109/122/109
f 28/123/28 30/114/30 104/113/104
f 108/121/108 110/124/110 109/122/109
f 27/125/27 109/122/109 110/124/110
f 27/125/27 28/123/28 109/122/109
f 111/126/111 110/124/110 108/121/108
f 112/127/112 111/126/111 108/121/108
f 108/121/108 107/119/107 112/127/112
f 74/128/74 112/127/112 107/119/107
f 107/119/107 72/120/72 74/128/74
f 112/127/112 113/129/113 111/126/111
f 114/130/114 113/129/113 112/127/112
f 114/130/114 112/127/112 74/128/74
f 111/126/111 113/129/113 110/124/110
f 115/131/115 110/124/110 113/129/113
f 115/131/115 27/125/27 110/124/110
f 115/131/115 15/132/15 27/125/27
f 113/129/113 116/133/116 115/131/115
f 13/134/13 115/131/115 116/133/116
f 13/134/13 15/132/15 115/131/115
f 117/135/117 113/129/113 114/130/114
f 118/136/118 116/133/116 113/129/113
f 117/135/117 118/136/118 113/129/113
f 114/130/114 83/137/83 117/135/117
f 114/130/114 73/138/73 83/137/83
f 74/128/74 73/138/73 114/130/114
f 119/139/119 118/136/118 117/135/117
f 119/139/119 117/135/117 82/140/82
f 83/137/83 82/140/82 117/135/117
f 118/136/118 120/141/120 116/133/116
f 121/142/121 120/141/120 118/136/118
f 119/139/119 121/142/121 118/136/118
f 8/143/8 116/133/116 120/141/120
f 8/143/8 13/134/13 116/133/116
f 121/142/121 122/144/122 120/141/120
f 4/145/4 120/141/120 122/144/122
f 4/145/4 8/143/8 120/141/120
f 123/146/123 122/144/122 121/142/121
f 121/142/121 124/147/124 123/146/123
f 119/139/119 124/147/124 121/142/121
f 124/147/124 119/139/119 84/148/84
f 82/140/82 84/148/84 119/139/119
f 124/147/124 125/149/125 123/146/123
f 124/147/124 86/150/86 125/149/125
f 84/148/84 86/150/86 124/147/124
f 123/146/123 126/151/126 122/144/122
f 123/146/123 127/152/127 126/151/126
f 125/149/125 127/152/127 123/146/123
f 122/144/122 5/153/5 4/145/4
f 126/151/126 5/153/5 122/144/122
f 57/97/57 59/118/59 95/99/95
