# Blender v2.78 (sub 0) OBJ File: ''
# www.blender.org
mtllib reaper right thigh.mtl
o Mesh_0714_Untitled.003
v -0.027850 0.482402 0.037056
v -0.078221 0.423752 0.040056
v -0.041236 0.496311 0.055236
v -0.065316 0.414427 0.021356
v -0.115207 0.351192 0.024875
v -0.102783 0.346451 0.005657
v -0.181544 0.258144 -0.022462
v -0.157573 0.250546 -0.042072
v -0.201643 0.154874 -0.038607
v -0.176480 0.150752 -0.056513
v -0.157585 0.243706 -0.001403
v -0.209865 0.056401 -0.048590
v -0.186480 0.056058 -0.064445
v -0.180552 0.144786 -0.014056
v -0.206696 -0.063975 -0.062018
v -0.183751 -0.060544 -0.076575
v -0.192121 0.048642 -0.020114
v -0.113615 0.122469 0.093331
v -0.096002 0.228771 0.101482
v -0.125714 0.030001 0.080506
v -0.089057 0.336218 0.088167
v 0.009247 0.101484 0.110794
v -0.058093 0.400889 0.084057
v -0.078221 0.423752 0.040056
v -0.041236 0.496311 0.055236
v -0.027128 0.465559 0.079947
v 0.049229 0.316312 0.115306
v 0.062422 0.389384 0.104209
v 0.030077 0.212333 0.121420
v 0.159360 0.180772 0.124123
v 0.190724 0.282707 0.112111
v 0.184640 0.354187 0.105740
v 0.233351 0.169856 0.033110
v 0.229467 0.289495 0.056442
v 0.218524 0.368939 0.067443
v 0.178555 0.425666 0.099368
v 0.207581 0.448382 0.078443
v 0.075614 0.462453 0.093111
v 0.084740 0.497090 0.068519
v 0.207581 0.448382 0.078443
v -0.041236 0.496311 0.055236
v 0.193195 0.439610 0.057833
v -0.027850 0.482402 0.037056
v 0.083369 0.479363 0.053545
v 0.205725 0.362708 0.045916
v 0.218255 0.285806 0.033998
v 0.218524 0.368939 0.067443
v 0.193195 0.439610 0.057833
v 0.207581 0.448382 0.078443
v 0.265295 0.179639 0.016810
v 0.247235 0.179394 -0.006335
v 0.249115 0.069515 0.000975
v 0.227091 0.074516 -0.020885
v 0.220729 0.068982 0.021369
v 0.220738 -0.024876 -0.010804
v 0.200371 -0.016898 -0.032327
v 0.136911 0.075418 0.115067
v 0.195751 -0.024388 0.013885
v 0.114898 -0.015218 0.101334
v 0.174076 -0.135990 -0.027275
v 0.156492 -0.124723 -0.050313
v 0.153695 -0.134436 0.001033
v 0.112131 -0.254545 -0.053811
v 0.099588 -0.243863 -0.077206
v 0.060475 -0.332874 -0.089641
v 0.066648 -0.343339 -0.069361
v 0.029739 -0.420746 -0.096289
v 0.040103 -0.430331 -0.080777
v 0.040049 -0.414575 -0.056051
v 0.054206 -0.332628 -0.044545
v 0.096634 -0.251022 -0.027275
v 0.012290 -0.323093 0.009427
v 0.041915 -0.241869 0.032332
v 0.084040 -0.122949 0.075717
v -0.008469 0.006447 0.096718
v -0.028478 -0.108138 0.070933
v -0.134630 -0.081625 0.055710
v -0.046217 -0.226391 0.030532
v -0.134920 -0.208607 0.012031
v -0.193071 -0.068999 -0.030625
v -0.176030 -0.199693 -0.058414
v -0.133360 -0.295875 -0.008683
v -0.185327 -0.198440 -0.087434
v -0.167635 -0.193659 -0.098358
v -0.159148 -0.291980 -0.109509
v -0.167770 -0.292072 -0.071531
v -0.170956 -0.298793 -0.099182
v -0.162219 -0.384875 -0.111571
v -0.178672 -0.389447 -0.107980
v -0.178871 -0.373664 -0.083272
v -0.142597 -0.359094 -0.020745
v -0.071630 -0.372022 -0.008694
v -0.060469 -0.306956 0.008677
v -0.131655 -0.391938 -0.060415
v -0.178871 -0.373664 -0.083272
v -0.178672 -0.389447 -0.107980
v -0.162219 -0.384875 -0.111571
v -0.073568 -0.400392 -0.050828
v -0.014196 -0.413889 -0.045813
v 0.040103 -0.430331 -0.080777
v 0.029739 -0.420746 -0.096289
v 0.040049 -0.414575 -0.056051
v 0.001563 -0.386033 -0.002820
v -0.014196 -0.413889 -0.045813
v -0.012560 -0.410931 -0.084767
v 0.029739 -0.420746 -0.096289
v -0.073568 -0.400392 -0.050828
v -0.085467 -0.395030 -0.094198
v -0.131655 -0.391938 -0.060415
v -0.162219 -0.384875 -0.111571
vt 0.7417 -0.5981
vt 0.7397 -0.6084
vt 0.7451 -0.5981
vt 0.7363 -0.6079
vt 0.7349 -0.6191
vt 0.7319 -0.6182
vt 0.7266 -0.6338
vt 0.7227 -0.6333
vt 0.7256 -0.6484
vt 0.7217 -0.6484
vt 0.7310 -0.6353
vt 0.7266 -0.6616
vt 0.7231 -0.6626
vt 0.7300 -0.6489
vt 0.7300 -0.6782
vt 0.7261 -0.6792
vt 0.7314 -0.6616
vt 0.7466 -0.6484
vt 0.7466 -0.6348
vt 0.7471 -0.6602
vt 0.7441 -0.6211
vt 0.7627 -0.6479
vt 0.7461 -0.6118
vt 0.7397 -0.6084
vt 0.7451 -0.5981
vt 0.7485 -0.6030
vt 0.7627 -0.6201
vt 0.7627 -0.6108
vt 0.7627 -0.6338
vt 0.7798 -0.6348
vt 0.7817 -0.6211
vt 0.7793 -0.6123
vt 0.7949 -0.6353
vt 0.7905 -0.6191
vt 0.7856 -0.6084
vt 0.7769 -0.6030
vt 0.7803 -0.5981
vt 0.7622 -0.6011
vt 0.7622 -0.5952
vt 0.7803 -0.5981
vt 0.7451 -0.5981
vt 0.7793 -0.5947
vt 0.7466 -0.5947
vt 0.7627 -0.5923
vt 0.7891 -0.6079
vt 0.7939 -0.6182
vt 0.7856 -0.6084
vt 0.7837 -0.5981
vt 0.7803 -0.5981
vt 0.7993 -0.6333
vt 0.8027 -0.6328
vt 0.8003 -0.6484
vt 0.8042 -0.6489
vt 0.7954 -0.6489
vt 0.7988 -0.6621
vt 0.8027 -0.6631
vt 0.7793 -0.6484
vt 0.7939 -0.6621
vt 0.7783 -0.6602
vt 0.7949 -0.6782
vt 0.7988 -0.6797
vt 0.7905 -0.6777
vt 0.7896 -0.6963
vt 0.7930 -0.6978
vt 0.7886 -0.7104
vt 0.7847 -0.7095
vt 0.7837 -0.7217
vt 0.7803 -0.7217
vt 0.7783 -0.7183
vt 0.7812 -0.7070
vt 0.7856 -0.6953
vt 0.7725 -0.7041
vt 0.7744 -0.6924
vt 0.7769 -0.6748
vt 0.7627 -0.6606
vt 0.7622 -0.6758
vt 0.7480 -0.6748
vt 0.7622 -0.6924
vt 0.7500 -0.6924
vt 0.7344 -0.6772
vt 0.7388 -0.6953
vt 0.7520 -0.7046
vt 0.7349 -0.6968
vt 0.7314 -0.6973
vt 0.7358 -0.7104
vt 0.7427 -0.7075
vt 0.7393 -0.7100
vt 0.7402 -0.7222
vt 0.7437 -0.7217
vt 0.7456 -0.7183
vt 0.7529 -0.7129
vt 0.7622 -0.7129
vt 0.7622 -0.7036
vt 0.7529 -0.7197
vt 0.7456 -0.7183
vt 0.7437 -0.7217
vt 0.7432 -0.7256
vt 0.7617 -0.7197
vt 0.7710 -0.7197
vt 0.7803 -0.7217
vt 0.7798 -0.7251
vt 0.7783 -0.7183
vt 0.7715 -0.7124
vt 0.7710 -0.7197
vt 0.7720 -0.7241
vt 0.7798 -0.7251
vt 0.7617 -0.7197
vt 0.7583 -0.7241
vt 0.7529 -0.7197
vt 0.7432 -0.7256
vn -0.5497 0.4356 -0.7128
vn -0.5977 0.4603 -0.6564
vn -0.5406 0.4272 -0.7248
vn -0.6114 0.4657 -0.6398
vn -0.8683 0.4960 -0.0117
vn -0.5953 0.5825 -0.5535
vn -0.9189 0.3920 -0.0443
vn -0.4981 0.3993 -0.7697
vn -0.9795 0.1645 -0.1166
vn -0.5516 0.1726 -0.8160
vn -0.7566 0.0883 0.6479
vn -0.9794 0.0661 -0.1909
vn -0.5561 0.1018 -0.8249
vn -0.7982 0.0699 0.5983
vn -0.9613 -0.0305 -0.2740
vn -0.5419 0.0733 -0.8373
vn -0.8469 -0.0019 0.5317
vn -0.5450 -0.0025 0.8384
vn -0.5319 0.0737 0.8436
vn -0.5470 -0.0905 0.8323
vn -0.5967 0.2418 0.7651
vn -0.1056 -0.0975 0.9896
vn -0.5128 0.2801 0.8115
vn -0.7672 0.3189 0.5565
vn -0.7053 0.2184 0.6744
vn -0.3529 0.3673 0.8606
vn -0.0650 0.1203 0.9906
vn -0.0624 0.1516 0.9865
vn -0.0889 0.0009 0.9960
vn 0.3919 -0.0972 0.9149
vn 0.5123 0.0387 0.8579
vn 0.4275 0.1013 0.8983
vn 0.6302 -0.1710 0.7573
vn 0.9795 0.1580 0.1252
vn 0.7148 0.0441 0.6980
vn 0.2962 0.2436 0.9235
vn 0.5990 -0.0283 0.8002
vn -0.0136 0.3940 0.9190
vn 0.1792 0.9816 0.0662
vn 0.3475 0.9167 0.1974
vn -0.0237 0.9857 0.1668
vn 0.3363 0.7422 -0.5797
vn 0.0636 0.7974 -0.6000
vn 0.1920 0.6246 -0.7570
vn 0.8203 0.2021 -0.5350
vn 0.8149 0.3351 -0.4729
vn 0.8096 0.2021 -0.5511
vn 0.7733 0.1951 -0.6033
vn 0.7651 0.1906 -0.6151
vn 0.9881 0.0513 0.1447
vn 0.7685 0.1702 -0.6168
vn 0.9733 -0.2215 0.0608
vn 0.6945 -0.0786 -0.7152
vn 0.6537 -0.2127 0.7263
vn 0.9482 -0.3176 -0.0084
vn 0.6942 -0.1505 -0.7038
vn 0.3684 -0.1829 0.9115
vn 0.6830 -0.3014 0.6654
vn 0.3375 -0.2608 0.9045
vn 0.9152 -0.3994 -0.0540
vn 0.7311 -0.2110 -0.6488
vn 0.6869 -0.4097 0.6003
vn 0.8975 -0.4396 -0.0358
vn 0.7945 -0.2644 -0.5467
vn 0.8458 -0.3108 -0.4336
vn 0.9344 -0.3546 0.0347
vn 0.7913 -0.1733 -0.5864
vn 0.9178 -0.2384 -0.3176
vn 0.9214 -0.2972 0.2505
vn 0.7329 -0.3583 0.5783
vn 0.6837 -0.4654 0.5621
vn 0.3254 -0.3218 0.8891
vn 0.3060 -0.3931 0.8671
vn 0.3082 -0.3563 0.8821
vn -0.1178 -0.1636 0.9795
vn -0.1409 -0.2550 0.9566
vn -0.5562 -0.1944 0.8080
vn -0.1595 -0.2671 0.9504
vn -0.5974 -0.2335 0.7672
vn -0.8799 -0.1158 0.4608
vn -0.9053 -0.1716 0.3886
vn -0.5964 -0.1451 0.7894
vn -0.9299 -0.0659 -0.3619
vn -0.5363 0.0614 -0.8418
vn -0.6538 0.0153 -0.7565
vn -0.9460 -0.0486 0.3206
vn -0.9197 0.0200 -0.3921
vn -0.2858 0.1080 -0.9522
vn -0.6854 0.1279 -0.7169
vn -0.9860 0.0822 0.1453
vn -0.5623 -0.3714 0.7388
vn -0.2017 -0.5280 0.8249
vn -0.1618 -0.2301 0.9596
vn -0.3515 -0.8019 0.4832
vn -0.5057 -0.7286 0.4620
vn -0.1575 -0.9820 0.1042
vn 0.2071 -0.9447 -0.2542
vn -0.2186 -0.8047 0.5519
vn -0.0902 -0.8591 0.5038
vn -0.2479 -0.9663 0.0693
vn -0.4257 -0.8689 -0.2525
vn 0.3183 -0.7144 0.6232
vn 0.2321 -0.5139 0.8258
vn -0.2245 -0.9709 -0.0831
vn -0.2297 -0.9700 -0.0800
vn -0.2468 -0.9654 -0.0837
vn -0.1790 -0.9809 -0.0763
vn -0.1530 -0.9855 -0.0738
vn -0.1206 -0.9899 -0.0743
vn -0.1158 -0.9910 -0.0676
usemtl Tex_1874_0.dds.001
s 1
f 1/1/1 2/2/2 3/3/3
f 4/4/4 2/2/2 1/1/1
f 2/2/2 4/4/4 5/5/5
f 5/5/5 4/4/4 6/6/6
f 5/5/5 6/6/6 7/7/7
f 7/7/7 6/6/6 8/8/8
f 7/7/7 8/8/8 9/9/9
f 9/9/9 8/8/8 10/10/10
f 7/7/7 11/11/11 5/5/5
f 7/7/7 9/9/9 11/11/11
f 10/10/10 12/12/12 9/9/9
f 13/13/13 12/12/12 10/10/10
f 9/9/9 12/12/12 14/14/14
f 11/11/11 9/9/9 14/14/14
f 13/13/13 15/15/15 12/12/12
f 16/16/16 15/15/15 13/13/13
f 14/14/14 12/12/12 17/17/17
f 12/12/12 15/15/15 17/17/17
f 14/14/14 18/18/18 11/11/11
f 17/17/17 18/18/18 14/14/14
f 11/11/11 18/18/18 19/19/19
f 20/20/20 18/18/18 17/17/17
f 19/19/19 21/21/21 11/11/11
f 11/11/11 21/21/21 5/5/5
f 18/18/18 22/22/22 19/19/19
f 20/20/20 22/22/22 18/18/18
f 23/23/23 5/5/5 21/21/21
f 24/24/24 5/5/5 23/23/23
f 25/25/25 24/24/24 26/26/26
f 26/26/26 24/24/24 23/23/23
f 21/21/21 27/27/27 23/23/23
f 19/19/19 27/27/27 21/21/21
f 23/23/23 28/28/28 26/26/26
f 23/23/23 27/27/27 28/28/28
f 29/29/29 27/27/27 19/19/19
f 19/19/19 22/22/22 29/29/29
f 29/29/29 30/30/30 27/27/27
f 29/29/29 22/22/22 30/30/30
f 27/27/27 30/30/30 31/31/31
f 31/31/31 32/32/32 27/27/27
f 27/27/27 32/32/32 28/28/28
f 33/33/33 31/31/31 30/30/30
f 34/34/34 32/32/32 31/31/31
f 31/31/31 33/33/33 34/34/34
f 35/35/35 32/32/32 34/34/34
f 35/35/35 36/36/36 32/32/32
f 37/37/37 36/36/36 35/35/35
f 32/32/32 36/36/36 28/28/28
f 28/28/28 36/36/36 38/38/38
f 26/26/26 28/28/28 38/38/38
f 38/38/38 36/36/36 39/39/39
f 39/39/39 26/26/26 38/38/38
f 39/39/39 36/36/36 40/40/40
f 41/41/41 26/26/26 39/39/39
f 42/42/42 39/39/39 40/40/40
f 41/41/41 39/39/39 43/43/43
f 44/44/44 39/39/39 42/42/42
f 43/43/43 39/39/39 44/44/44
f 45/45/45 34/34/34 46/46/46
f 47/47/47 34/34/34 45/45/45
f 48/48/48 47/47/47 45/45/45
f 49/49/49 47/47/47 48/48/48
f 34/34/34 50/50/50 46/46/46
f 46/46/46 50/50/50 51/51/51
f 33/33/33 50/50/50 34/34/34
f 50/50/50 52/52/52 51/51/51
f 33/33/33 52/52/52 50/50/50
f 51/51/51 52/52/52 53/53/53
f 54/54/54 52/52/52 33/33/33
f 55/55/55 53/53/53 52/52/52
f 54/54/54 55/55/55 52/52/52
f 56/56/56 53/53/53 55/55/55
f 54/54/54 33/33/33 57/57/57
f 57/57/57 33/33/33 30/30/30
f 30/30/30 22/22/22 57/57/57
f 57/57/57 58/58/58 54/54/54
f 58/58/58 55/55/55 54/54/54
f 22/22/22 59/59/59 57/57/57
f 59/59/59 58/58/58 57/57/57
f 58/58/58 60/60/60 55/55/55
f 60/60/60 56/56/56 55/55/55
f 61/61/61 56/56/56 60/60/60
f 62/62/62 60/60/60 58/58/58
f 59/59/59 62/62/62 58/58/58
f 60/60/60 63/63/63 61/61/61
f 60/60/60 62/62/62 63/63/63
f 61/61/61 63/63/63 64/64/64
f 64/64/64 63/63/63 65/65/65
f 65/65/65 63/63/63 66/66/66
f 66/66/66 67/67/67 65/65/65
f 68/68/68 67/67/67 66/66/66
f 68/68/68 66/66/66 69/69/69
f 66/66/66 70/70/70 69/69/69
f 63/63/63 70/70/70 66/66/66
f 71/71/71 70/70/70 63/63/63
f 63/63/63 62/62/62 71/71/71
f 70/70/70 71/71/71 72/72/72
f 71/71/71 62/62/62 73/73/73
f 72/72/72 71/71/71 73/73/73
f 73/73/73 62/62/62 74/74/74
f 74/74/74 62/62/62 59/59/59
f 75/75/75 74/74/74 59/59/59
f 75/75/75 59/59/59 22/22/22
f 75/75/75 22/22/22 20/20/20
f 76/76/76 74/74/74 75/75/75
f 76/76/76 73/73/73 74/74/74
f 77/77/77 75/75/75 20/20/20
f 76/76/76 75/75/75 77/77/77
f 17/17/17 77/77/77 20/20/20
f 78/78/78 73/73/73 76/76/76
f 73/73/73 78/78/78 72/72/72
f 77/77/77 79/79/79 76/76/76
f 76/76/76 79/79/79 78/78/78
f 80/80/80 77/77/77 17/17/17
f 80/80/80 79/79/79 77/77/77
f 17/17/17 15/15/15 80/80/80
f 81/81/81 79/79/79 80/80/80
f 15/15/15 81/81/81 80/80/80
f 81/81/81 82/82/82 79/79/79
f 82/82/82 78/78/78 79/79/79
f 83/83/83 81/81/81 15/15/15
f 15/15/15 16/16/16 83/83/83
f 83/83/83 16/16/16 84/84/84
f 84/84/84 85/85/85 83/83/83
f 81/81/81 83/83/83 86/86/86
f 86/86/86 82/82/82 81/81/81
f 83/83/83 85/85/85 87/87/87
f 86/86/86 83/83/83 87/87/87
f 88/88/88 87/87/87 85/85/85
f 89/89/89 87/87/87 88/88/88
f 89/89/89 90/90/90 87/87/87
f 90/90/90 86/86/86 87/87/87
f 90/90/90 91/91/91 86/86/86
f 86/86/86 91/91/91 82/82/82
f 91/91/91 92/92/92 82/82/82
f 82/82/82 92/92/92 93/93/93
f 93/93/93 78/78/78 82/82/82
f 72/72/72 78/78/78 93/93/93
f 92/92/92 72/72/72 93/93/93
f 94/94/94 92/92/92 91/91/91
f 91/91/91 95/95/95 94/94/94
f 94/94/94 95/95/95 96/96/96
f 94/94/94 96/96/96 97/97/97
f 98/98/98 92/92/92 94/94/94
f 99/99/99 92/92/92 98/98/98
f 100/100/100 99/99/99 101/101/101
f 102/102/102 99/99/99 100/100/100
f 103/103/103 92/92/92 99/99/99
f 103/103/103 99/99/99 102/102/102
f 103/103/103 72/72/72 92/92/92
f 102/102/102 70/70/70 103/103/103
f 103/103/103 70/70/70 72/72/72
f 104/104/104 105/105/105 106/106/106
f 104/104/104 107/107/107 105/105/105
f 105/105/105 107/107/107 108/108/108
f 109/109/109 108/108/108 107/107/107
f 110/110/110 108/108/108 109/109/109
