# Blender v2.78 (sub 0) OBJ File: ''
# www.blender.org
mtllib reaper left thigh.mtl
o Mesh_0714_Untitled.003
v 0.014059 -0.414708 -0.049794
v -0.029875 -0.421566 -0.100270
v 0.012423 -0.411751 -0.088748
v 0.073432 -0.401212 -0.054809
v 0.085330 -0.395849 -0.098179
v 0.131519 -0.392758 -0.064396
v 0.162082 -0.385694 -0.115552
v -0.186117 0.446026 0.069715
v -0.215576 0.371739 0.076582
v -0.200503 0.454798 0.094589
v -0.201209 0.367203 0.053493
v -0.230649 0.288676 0.058575
v -0.216301 0.288378 0.037270
v -0.265432 0.178820 0.005923
v -0.247372 0.178575 -0.010316
v -0.249252 0.068695 -0.006573
v -0.227228 0.073696 -0.024866
v -0.233488 0.169037 0.029129
v -0.222148 -0.026382 -0.015315
v -0.200508 -0.017716 -0.036308
v -0.220866 0.068162 0.017389
v -0.174212 -0.136809 -0.031256
v -0.156629 -0.125544 -0.054294
v -0.197188 -0.025891 0.011193
v -0.137048 0.074598 0.111087
v -0.153831 -0.135254 -0.002948
v -0.115815 -0.016271 0.098907
v -0.112268 -0.255364 -0.057792
v -0.099725 -0.244682 -0.081187
v -0.060612 -0.333693 -0.093622
v -0.066784 -0.344158 -0.073342
v -0.029875 -0.421566 -0.100270
v -0.040240 -0.431150 -0.084758
v -0.040186 -0.415394 -0.060032
v -0.054342 -0.333447 -0.048526
v -0.096770 -0.251841 -0.031256
v -0.012427 -0.323913 0.005446
v -0.042052 -0.242688 0.028351
v -0.084177 -0.123769 0.071736
v 0.028341 -0.108957 0.066952
v 0.008780 0.004766 0.094060
v -0.009383 0.100667 0.106814
v 0.134493 -0.082444 0.051729
v 0.126596 0.029317 0.078186
v -0.159497 0.179953 0.120142
v -0.190861 0.281887 0.108131
v -0.030213 0.211514 0.117439
v -0.181169 0.356987 0.108487
v -0.215576 0.371739 0.076582
v -0.049366 0.315493 0.117729
v -0.171476 0.432087 0.108843
v -0.200503 0.454798 0.094589
v -0.062558 0.388564 0.116094
v 0.095865 0.227952 0.097501
v 0.055333 0.401994 0.087986
v 0.113478 0.121649 0.089350
v 0.088920 0.335398 0.084186
v 0.157448 0.242887 -0.005384
v 0.076331 0.424856 0.051651
v 0.116808 0.350373 0.029557
v 0.021746 0.468588 0.091785
v 0.035853 0.499340 0.073744
v -0.075751 0.461633 0.114459
v -0.084876 0.496268 0.096537
v 0.035853 0.499340 0.073744
v -0.200503 0.454798 0.094589
v 0.022468 0.485431 0.051301
v -0.186117 0.446026 0.069715
v -0.083506 0.478541 0.068886
v 0.061143 0.415071 0.031122
v 0.076331 0.424856 0.051651
v 0.022468 0.485431 0.051301
v 0.035853 0.499340 0.073744
v 0.099818 0.344711 0.010944
v 0.177705 0.257325 -0.033349
v 0.157436 0.249727 -0.046053
v 0.201506 0.154052 -0.046403
v 0.176343 0.149933 -0.060494
v 0.180415 0.143966 -0.018037
v 0.212299 0.055638 -0.053073
v 0.186343 0.055241 -0.068425
v 0.194003 0.047774 -0.022660
v 0.206560 -0.064794 -0.065999
v 0.183614 -0.061364 -0.080556
v 0.192934 -0.069818 -0.034606
v 0.134783 -0.209426 0.008050
v 0.175893 -0.200512 -0.062395
v 0.185191 -0.199259 -0.091415
v 0.167498 -0.194477 -0.102338
v 0.159011 -0.292799 -0.113490
v 0.170820 -0.299612 -0.103163
v 0.162082 -0.385694 -0.115552
v 0.178536 -0.390266 -0.111961
v 0.178734 -0.374484 -0.087253
v 0.167634 -0.292891 -0.075512
v 0.142460 -0.359913 -0.024726
v 0.133224 -0.296694 -0.012664
v 0.046080 -0.227210 0.026551
v 0.060332 -0.307776 0.004696
v 0.071493 -0.372841 -0.012675
v -0.001700 -0.386853 -0.006801
v -0.040186 -0.415394 -0.060032
v 0.014059 -0.414708 -0.049794
v -0.040240 -0.431150 -0.084758
v -0.029875 -0.421566 -0.100270
v 0.073432 -0.401212 -0.054809
v 0.131519 -0.392758 -0.064396
v 0.178734 -0.374484 -0.087253
v 0.178536 -0.390266 -0.111961
v 0.162082 -0.385694 -0.115552
vt 0.8579 -0.7197
vt 0.8496 -0.7241
vt 0.8569 -0.7236
vt 0.8672 -0.7197
vt 0.8701 -0.7231
vt 0.8760 -0.7197
vt 0.8833 -0.7231
vt 0.8452 -0.5977
vt 0.8438 -0.6084
vt 0.8496 -0.5977
vt 0.8398 -0.6079
vt 0.8384 -0.6191
vt 0.8350 -0.6182
vt 0.8286 -0.6338
vt 0.8257 -0.6333
vt 0.8276 -0.6489
vt 0.8237 -0.6494
vt 0.8335 -0.6357
vt 0.8296 -0.6626
vt 0.8252 -0.6636
vt 0.8325 -0.6494
vt 0.8335 -0.6787
vt 0.8296 -0.6797
vt 0.8345 -0.6621
vt 0.8491 -0.6484
vt 0.8384 -0.6777
vt 0.8501 -0.6606
vt 0.8394 -0.6968
vt 0.8354 -0.6978
vt 0.8408 -0.7100
vt 0.8442 -0.7095
vt 0.8457 -0.7222
vt 0.8486 -0.7217
vt 0.8506 -0.7183
vt 0.8472 -0.7070
vt 0.8433 -0.6953
vt 0.8564 -0.7041
vt 0.8540 -0.6924
vt 0.8516 -0.6748
vt 0.8662 -0.6758
vt 0.8662 -0.6606
vt 0.8662 -0.6484
vt 0.8809 -0.6748
vt 0.8818 -0.6602
vt 0.8491 -0.6353
vt 0.8467 -0.6216
vt 0.8657 -0.6338
vt 0.8496 -0.6118
vt 0.8438 -0.6084
vt 0.8657 -0.6201
vt 0.8525 -0.6021
vt 0.8496 -0.5977
vt 0.8662 -0.6108
vt 0.8823 -0.6348
vt 0.8823 -0.6118
vt 0.8823 -0.6484
vt 0.8848 -0.6211
vt 0.8984 -0.6353
vt 0.8882 -0.6089
vt 0.8936 -0.6196
vt 0.8794 -0.6021
vt 0.8823 -0.5977
vt 0.8662 -0.6011
vt 0.8657 -0.5962
vt 0.8823 -0.5977
vt 0.8496 -0.5977
vt 0.8813 -0.5938
vt 0.8506 -0.5938
vt 0.8662 -0.5918
vt 0.8916 -0.6079
vt 0.8882 -0.6089
vt 0.8862 -0.5977
vt 0.8823 -0.5977
vt 0.8970 -0.6187
vt 0.9028 -0.6343
vt 0.9062 -0.6338
vt 0.9038 -0.6484
vt 0.9077 -0.6489
vt 0.8989 -0.6489
vt 0.9023 -0.6621
vt 0.9062 -0.6631
vt 0.8975 -0.6621
vt 0.8989 -0.6782
vt 0.9023 -0.6792
vt 0.8945 -0.6772
vt 0.8789 -0.6924
vt 0.8901 -0.6953
vt 0.8940 -0.6963
vt 0.8965 -0.6973
vt 0.8916 -0.7100
vt 0.8896 -0.7100
vt 0.8877 -0.7217
vt 0.8853 -0.7217
vt 0.8833 -0.7183
vt 0.8862 -0.7075
vt 0.8760 -0.7129
vt 0.8770 -0.7041
vt 0.8662 -0.6924
vt 0.8667 -0.7036
vt 0.8667 -0.7129
vt 0.8574 -0.7124
vt 0.8506 -0.7183
vt 0.8579 -0.7197
vt 0.8486 -0.7217
vt 0.8496 -0.7241
vt 0.8672 -0.7197
vt 0.8760 -0.7197
vt 0.8833 -0.7183
vt 0.8853 -0.7217
vt 0.8833 -0.7231
vn 0.2245 -0.9709 -0.0831
vn 0.2468 -0.9654 -0.0837
vn 0.2297 -0.9700 -0.0801
vn 0.1790 -0.9809 -0.0763
vn 0.1530 -0.9855 -0.0738
vn 0.1206 -0.9899 -0.0743
vn 0.1158 -0.9910 -0.0676
vn -0.7925 0.2634 -0.5501
vn -0.7946 0.2637 -0.5469
vn -0.7920 0.2632 -0.5509
vn -0.7953 0.2637 -0.5459
vn -0.9765 0.1749 0.1257
vn -0.7583 0.3772 -0.5317
vn -0.9966 0.0792 -0.0246
vn -0.6504 0.2039 -0.7317
vn -0.9786 -0.2044 -0.0238
vn -0.6341 -0.0630 -0.7706
vn -0.6816 -0.1742 0.7107
vn -0.9492 -0.3116 -0.0432
vn -0.6668 -0.1420 -0.7315
vn -0.6827 -0.2022 0.7022
vn -0.9130 -0.4040 -0.0575
vn -0.7311 -0.2110 -0.6488
vn -0.6936 -0.3000 0.6549
vn -0.3698 -0.1736 0.9128
vn -0.6839 -0.4168 0.5988
vn -0.3374 -0.2587 0.9051
vn -0.8975 -0.4396 -0.0358
vn -0.7945 -0.2644 -0.5467
vn -0.8458 -0.3108 -0.4336
vn -0.9344 -0.3546 0.0347
vn -0.7913 -0.1733 -0.5864
vn -0.9178 -0.2384 -0.3176
vn -0.9214 -0.2972 0.2505
vn -0.7329 -0.3583 0.5783
vn -0.6837 -0.4654 0.5621
vn -0.3254 -0.3218 0.8891
vn -0.3060 -0.3931 0.8671
vn -0.3059 -0.3636 0.8799
vn 0.1418 -0.2609 0.9549
vn 0.1170 -0.1633 0.9796
vn 0.1039 -0.0898 0.9905
vn 0.5557 -0.2036 0.8061
vn 0.5438 -0.0888 0.8345
vn -0.3962 -0.1060 0.9120
vn -0.5118 0.0013 0.8591
vn 0.0947 -0.0297 0.9951
vn -0.4063 0.0272 0.9133
vn -0.6520 -0.0008 0.7582
vn 0.0785 0.0457 0.9959
vn -0.2701 0.1268 0.9545
vn -0.4985 -0.0963 0.8615
vn 0.0804 0.0357 0.9961
vn 0.5387 0.0668 0.8399
vn 0.4987 0.2039 0.8425
vn 0.5426 0.0083 0.8399
vn 0.6055 0.1800 0.7753
vn 0.8113 0.1103 0.5741
vn 0.7333 0.2935 0.6133
vn 0.8687 0.4938 -0.0380
vn 0.3740 0.2508 0.8929
vn 0.6551 0.1355 0.7433
vn 0.0372 0.2638 0.9639
vn -0.1544 0.9429 0.2952
vn 0.0174 0.9745 0.2238
vn -0.3309 0.9109 0.2465
vn -0.1165 0.8672 -0.4841
vn -0.2876 0.8324 -0.4738
vn -0.2016 0.8200 -0.5357
vn 0.5643 0.5000 -0.6569
vn 0.5654 0.5004 -0.6557
vn 0.5686 0.5018 -0.6518
vn 0.5692 0.5024 -0.6508
vn 0.4809 0.5972 -0.6420
vn 0.8707 0.4379 -0.2237
vn 0.3726 0.4015 -0.8366
vn 0.9609 0.1844 -0.2067
vn 0.4655 0.1604 -0.8704
vn 0.8135 0.0924 0.5741
vn 0.9724 0.0686 -0.2228
vn 0.5081 0.0965 -0.8559
vn 0.8495 0.0015 0.5275
vn 0.9598 -0.0376 -0.2781
vn 0.5418 0.0733 -0.8373
vn 0.8795 -0.1260 0.4589
vn 0.5974 -0.2335 0.7672
vn 0.9053 -0.1716 0.3886
vn 0.9299 -0.0659 -0.3619
vn 0.5363 0.0614 -0.8418
vn 0.6538 0.0153 -0.7565
vn 0.9197 0.0200 -0.3921
vn 0.2858 0.1080 -0.9522
vn 0.6854 0.1279 -0.7169
vn 0.9860 0.0822 0.1453
vn 0.9460 -0.0486 0.3206
vn 0.5623 -0.3714 0.7388
vn 0.5964 -0.1451 0.7894
vn 0.1595 -0.2671 0.9504
vn 0.1618 -0.2301 0.9596
vn 0.2017 -0.5280 0.8249
vn -0.2321 -0.5139 0.8258
vn -0.3183 -0.7144 0.6232
vn 0.0902 -0.8591 0.5038
vn 0.2479 -0.9663 0.0693
vn 0.4257 -0.8689 -0.2525
vn 0.2186 -0.8047 0.5519
vn 0.3515 -0.8019 0.4832
vn 0.5057 -0.7286 0.4620
vn 0.1575 -0.9820 0.1042
vn -0.2071 -0.9447 -0.2542
usemtl Tex_1874_0.dds.001
s 1
f 1/1/1 2/2/2 3/3/3
f 3/3/3 4/4/4 1/1/1
f 5/5/5 4/4/4 3/3/3
f 5/5/5 6/6/6 4/4/4
f 7/7/7 6/6/6 5/5/5
f 8/8/8 9/9/9 10/10/10
f 11/11/11 9/9/9 8/8/8
f 11/11/11 12/12/12 9/9/9
f 13/13/13 12/12/12 11/11/11
f 13/13/13 14/14/14 12/12/12
f 15/15/15 14/14/14 13/13/13
f 15/15/15 16/16/16 14/14/14
f 17/17/17 16/16/16 15/15/15
f 18/18/18 12/12/12 14/14/14
f 14/14/14 16/16/16 18/18/18
f 16/16/16 17/17/17 19/19/19
f 19/19/19 17/17/17 20/20/20
f 16/16/16 19/19/19 21/21/21
f 18/18/18 16/16/16 21/21/21
f 19/19/19 20/20/20 22/22/22
f 22/22/22 20/20/20 23/23/23
f 21/21/21 19/19/19 24/24/24
f 19/19/19 22/22/22 24/24/24
f 24/24/24 25/25/25 21/21/21
f 21/21/21 25/25/25 18/18/18
f 24/24/24 22/22/22 26/26/26
f 27/27/27 25/25/25 24/24/24
f 26/26/26 27/27/27 24/24/24
f 23/23/23 28/28/28 22/22/22
f 22/22/22 28/28/28 26/26/26
f 29/29/29 28/28/28 23/23/23
f 29/29/29 30/30/30 28/28/28
f 28/28/28 30/30/30 31/31/31
f 30/30/30 32/32/32 31/31/31
f 31/31/31 32/32/32 33/33/33
f 33/33/33 34/34/34 31/31/31
f 31/31/31 34/34/34 35/35/35
f 31/31/31 35/35/35 28/28/28
f 28/28/28 35/35/35 36/36/36
f 26/26/26 28/28/28 36/36/36
f 35/35/35 37/37/37 36/36/36
f 36/36/36 38/38/38 26/26/26
f 36/36/36 37/37/37 38/38/38
f 26/26/26 38/38/38 39/39/39
f 39/39/39 27/27/27 26/26/26
f 39/39/39 38/38/38 40/40/40
f 39/39/39 41/41/41 27/27/27
f 40/40/40 41/41/41 39/39/39
f 41/41/41 42/42/42 27/27/27
f 27/27/27 42/42/42 25/25/25
f 40/40/40 43/43/43 41/41/41
f 41/41/41 44/44/44 42/42/42
f 41/41/41 43/43/43 44/44/44
f 25/25/25 42/42/42 45/45/45
f 18/18/18 25/25/25 45/45/45
f 18/18/18 45/45/45 46/46/46
f 46/46/46 12/12/12 18/18/18
f 45/45/45 42/42/42 47/47/47
f 48/48/48 12/12/12 46/46/46
f 49/49/49 12/12/12 48/48/48
f 46/46/46 45/45/45 50/50/50
f 50/50/50 48/48/48 46/46/46
f 50/50/50 45/45/45 47/47/47
f 51/51/51 49/49/49 48/48/48
f 52/52/52 49/49/49 51/51/51
f 53/53/53 48/48/48 50/50/50
f 48/48/48 53/53/53 51/51/51
f 54/54/54 50/50/50 47/47/47
f 47/47/47 42/42/42 54/54/54
f 53/53/53 50/50/50 55/55/55
f 54/54/54 42/42/42 56/56/56
f 42/42/42 44/44/44 56/56/56
f 57/57/57 50/50/50 54/54/54
f 55/55/55 50/50/50 57/57/57
f 54/54/54 58/58/58 57/57/57
f 56/56/56 58/58/58 54/54/54
f 55/55/55 57/57/57 59/59/59
f 59/59/59 57/57/57 60/60/60
f 58/58/58 60/60/60 57/57/57
f 59/59/59 61/61/61 55/55/55
f 62/62/62 61/61/61 59/59/59
f 61/61/61 53/53/53 55/55/55
f 63/63/63 53/53/53 61/61/61
f 51/51/51 53/53/53 63/63/63
f 63/63/63 61/61/61 64/64/64
f 64/64/64 51/51/51 63/63/63
f 64/64/64 61/61/61 65/65/65
f 66/66/66 51/51/51 64/64/64
f 67/67/67 64/64/64 65/65/65
f 66/66/66 64/64/64 68/68/68
f 69/69/69 64/64/64 67/67/67
f 68/68/68 64/64/64 69/69/69
f 60/60/60 70/70/70 71/71/71
f 70/70/70 72/72/72 71/71/71
f 71/71/71 72/72/72 73/73/73
f 74/74/74 70/70/70 60/60/60
f 75/75/75 74/74/74 60/60/60
f 76/76/76 74/74/74 75/75/75
f 75/75/75 60/60/60 58/58/58
f 77/77/77 76/76/76 75/75/75
f 58/58/58 77/77/77 75/75/75
f 78/78/78 76/76/76 77/77/77
f 79/79/79 77/77/77 58/58/58
f 79/79/79 58/58/58 56/56/56
f 77/77/77 80/80/80 78/78/78
f 79/79/79 80/80/80 77/77/77
f 78/78/78 80/80/80 81/81/81
f 79/79/79 56/56/56 82/82/82
f 82/82/82 80/80/80 79/79/79
f 82/82/82 56/56/56 44/44/44
f 43/43/43 82/82/82 44/44/44
f 80/80/80 83/83/83 81/81/81
f 80/80/80 82/82/82 83/83/83
f 81/81/81 83/83/83 84/84/84
f 85/85/85 82/82/82 43/43/43
f 83/83/83 82/82/82 85/85/85
f 86/86/86 85/85/85 43/43/43
f 40/40/40 86/86/86 43/43/43
f 85/85/85 87/87/87 83/83/83
f 87/87/87 85/85/85 86/86/86
f 88/88/88 84/84/84 83/83/83
f 83/83/83 87/87/87 88/88/88
f 89/89/89 84/84/84 88/88/88
f 89/89/89 88/88/88 90/90/90
f 90/90/90 88/88/88 91/91/91
f 90/90/90 91/91/91 92/92/92
f 92/92/92 91/91/91 93/93/93
f 93/93/93 91/91/91 94/94/94
f 91/91/91 88/88/88 95/95/95
f 94/94/94 91/91/91 95/95/95
f 95/95/95 88/88/88 87/87/87
f 94/94/94 95/95/95 96/96/96
f 95/95/95 87/87/87 97/97/97
f 96/96/96 95/95/95 97/97/97
f 97/97/97 87/87/87 86/86/86
f 86/86/86 98/98/98 97/97/97
f 98/98/98 86/86/86 40/40/40
f 40/40/40 38/38/38 98/98/98
f 37/37/37 98/98/98 38/38/38
f 97/97/97 98/98/98 99/99/99
f 99/99/99 98/98/98 37/37/37
f 99/99/99 100/100/100 97/97/97
f 37/37/37 100/100/100 99/99/99
f 97/97/97 100/100/100 96/96/96
f 101/101/101 100/100/100 37/37/37
f 35/35/35 101/101/101 37/37/37
f 102/102/102 101/101/101 35/35/35
f 102/102/102 103/103/103 101/101/101
f 103/103/103 100/100/100 101/101/101
f 104/104/104 103/103/103 102/102/102
f 104/104/104 105/105/105 103/103/103
f 106/106/106 100/100/100 103/103/103
f 107/107/107 100/100/100 106/106/106
f 96/96/96 100/100/100 107/107/107
f 107/107/107 108/108/108 96/96/96
f 109/109/109 108/108/108 107/107/107
f 107/107/107 110/110/110 109/109/109
