# Blender v2.77 (sub 0) OBJ File: ''
# www.blender.org
mtllib gauss_display.mtl
o default_17_55
v 5.971730 52.694534 -1.606759
v 4.996640 50.094833 -0.118753
v 5.971730 52.694534 -0.118752
v 4.996640 50.094833 -1.606759
v 5.971730 52.694534 1.370231
v 4.996640 50.094833 1.370231
v 6.946810 55.223934 -0.118752
v 6.946810 55.223934 -1.606758
v 6.946810 55.223934 1.370231
v 6.361760 64.217331 2.625238
v 7.044320 62.671535 -0.118751
v 7.044320 62.671535 2.625237
v 6.361760 64.217331 -0.118750
v 5.679200 65.763031 -0.118750
v 5.679200 65.763031 2.625238
v 6.361760 64.217339 -2.862769
v 7.044320 62.671535 -2.862769
v 5.679200 65.763039 -2.862769
vt 0.0069 0.5782
vt 0.2838 0.9922
vt 0.2838 0.5782
vt 0.0069 0.9922
vt 0.0077 0.5782
vt 0.0077 0.9922
vt 0.0069 0.5797
vt 0.2838 0.9938
vt 0.0069 0.9938
vt 0.2838 0.5797
vt 0.0077 0.5797
vt 0.0077 0.9938
vt 0.9945 0.5000
vt 0.5000 0.0055
vt 0.9945 0.0055
vt 0.5000 0.5000
vt 0.5000 0.9946
vt 0.9945 0.9946
vt 0.0054 0.5000
vt 0.0054 0.0055
vt 0.0054 0.9946
vn -0.9347 0.3554 0.0000
vn -0.9363 0.3512 0.0000
vn -0.9352 0.3540 -0.0000
vn -0.9342 0.3569 0.0000
vn -0.9331 0.3597 0.0000
vn -0.9148 -0.4039 0.0000
vn -0.9148 -0.4040 -0.0000
usemtl %%%DEFAULT
s 1
f 1/1/1 2/2/2 3/3/3
f 2/2/2 1/1/1 4/4/2
f 2/2/2 5/5/1 3/3/4
f 5/5/1 2/2/2 6/6/2
f 1/7/1 7/8/5 8/9/5
f 7/8/5 1/7/1 3/10/4
f 5/11/1 7/8/5 3/10/4
f 7/8/5 5/11/5 9/12/5
f 10/13/6 11/14/6 12/15/6
f 11/14/6 10/13/6 13/16/6
f 14/17/7 13/16/6 10/13/6
f 10/13/6 15/18/7 14/17/7
f 11/14/6 13/16/6 16/19/6
f 16/19/6 17/20/6 11/14/6
f 14/17/7 16/19/6 13/16/6
f 16/19/6 14/17/7 18/21/7
