# Blender v2.77 (sub 0) OBJ File: ''
# www.blender.org
mtllib warthog fender.mtl
o bumper_def_0
v 3.083580 -3.391333 -0.000447
v 3.083580 0.019268 -0.000447
v 3.083580 -3.391337 27.729713
v 3.083580 3.430969 -0.000446
v 3.083580 3.430965 27.729713
v 3.083580 3.430974 -27.728987
v 3.083580 -3.391328 -27.728987
v -2.582016 -1.624537 27.729713
v -1.703018 -3.581732 -0.000447
v -1.703018 -3.581736 27.729713
v -2.141014 -2.603733 -0.000447
v -2.582016 -1.624533 -0.000447
v 1.438385 1.664165 29.116413
v -2.582016 1.664165 27.729713
v 1.438385 -1.624537 29.116413
v -0.611320 -3.836033 -0.000447
v 0.480385 -4.090332 -0.000447
v 0.480385 -4.090336 27.729713
v 1.781982 -3.741432 -0.000447
v 0.480385 4.129863 27.729713
v -1.703018 3.443965 27.729713
v -2.582016 0.019268 -0.000447
v -2.582016 1.664169 -0.000447
v -2.141014 2.553467 -0.000446
v -1.703018 3.443970 -0.000446
v -0.611320 3.786968 -0.000446
v 0.480385 4.129868 -0.000446
v 1.781982 3.779869 -0.000446
v -1.703018 3.443974 -27.728987
v 0.483482 4.129872 -27.728987
v -2.582016 1.664174 -27.728987
v -2.582016 -1.624528 -27.728987
v 1.441383 1.664174 -29.115788
v -1.703018 -3.581727 -27.728987
v 1.441383 -1.624528 -29.115788
v 0.483482 -4.090328 -27.728987
vt 0.3855 0.8159
vt 0.3731 0.8159
vt 0.3855 0.7150
vt 0.3607 0.8159
vt 0.3607 0.7150
vt 0.3607 0.7150
vt 0.3855 0.7150
vt 0.2621 0.9527
vt 0.1457 0.9437
vt 0.2622 0.9437
vt 0.1456 0.9482
vt 0.1456 0.9527
vt 0.2789 0.9665
vt 0.2621 0.9665
vt 0.2789 0.9527
vt 0.2656 0.9444
vt 0.1457 0.9389
vt 0.1457 0.9342
vt 0.2622 0.9342
vt 0.1457 0.9286
vt 0.1457 0.9229
vt 0.2622 0.9229
vt 0.2858 0.9739
vt 0.2858 0.9453
vt 0.2748 0.9423
vt 0.2748 0.9769
vt 0.2656 0.9740
vt 0.1456 0.9596
vt 0.1456 0.9665
vt 0.2622 0.9749
vt 0.1457 0.9707
vt 0.1457 0.9749
vt 0.1457 0.9797
vt 0.2622 0.9845
vt 0.1457 0.9845
vt 0.2622 0.9958
vt 0.1457 0.9901
vt 0.1457 0.9958
vt 0.2622 0.9749
vt 0.2622 0.9845
vt 0.2621 0.9665
vt 0.2621 0.9527
vt 0.2789 0.9665
vt 0.2656 0.9740
vt 0.2622 0.9437
vt 0.2789 0.9527
vt 0.2656 0.9444
vt 0.2622 0.9342
vt 0.2622 0.9229
vt 0.2748 0.9423
vt 0.2858 0.9453
vt 0.2858 0.9739
vt 0.2748 0.9769
vt 0.2622 0.9958
vn 0.7524 -0.6588 0.0000
vn 1.0000 0.0000 0.0000
vn 0.9702 -0.2418 0.0183
vn 0.9728 0.2316 0.0000
vn 0.9997 -0.0127 0.0202
vn 0.8439 0.5349 0.0404
vn 0.9984 -0.0000 -0.0563
vn 0.9990 -0.0093 -0.0435
vn 0.6785 -0.7346 -0.0000
vn -0.9613 -0.2270 0.1559
vn -0.8544 -0.5197 -0.0000
vn -0.5484 -0.8307 0.0955
vn -0.9122 -0.4097 -0.0000
vn -0.7467 -0.6651 -0.0000
vn -0.9713 -0.2378 -0.0000
vn -0.3259 0.0343 0.9448
vn -0.3255 0.0565 0.9438
vn 0.1366 -0.0960 0.9860
vn -0.2269 -0.9739 -0.0000
vn -0.0900 -0.9959 -0.0000
vn 0.1219 -0.9922 0.0274
vn 0.2593 -0.9658 0.0000
vn 0.2597 -0.9657 0.0000
vn 0.2468 -0.9677 0.0511
vn 0.3583 -0.9110 0.2040
vn 0.3380 0.9306 0.1408
vn 0.1366 -0.0961 0.9860
vn 0.0006 0.2132 0.9770
vn 0.2468 -0.9677 0.0510
vn -0.0536 0.9962 0.0692
vn -0.6682 0.7433 0.0315
vn 0.3584 -0.9110 0.2040
vn 0.1737 -0.1087 0.9788
vn -0.3219 0.1590 0.9333
vn -1.0000 0.0000 0.0000
vn -0.9896 0.1264 0.0686
vn -0.9472 0.3205 -0.0000
vn -0.8966 0.4428 0.0000
vn -0.6277 0.7785 -0.0000
vn -0.2997 0.9540 -0.0000
vn 0.0595 0.9982 -0.0000
vn 0.2593 0.9658 0.0000
vn 0.9728 0.2317 0.0000
vn -0.6249 0.7768 -0.0779
vn -0.2787 0.9534 -0.1153
vn -0.9860 0.1306 -0.1041
vn -0.9733 -0.1891 -0.1299
vn -0.1351 0.1514 -0.9792
vn -0.4959 -0.8648 -0.0794
vn 0.1390 -0.1558 -0.9780
vn 0.1168 -0.9917 -0.0544
vn 0.3587 -0.9109 -0.2039
vn 0.3382 0.9305 -0.1406
vn 0.2367 0.9609 -0.1439
vn 0.2597 0.9657 0.0000
usemtl JoinedMaterial_#3
s 1
f 1/1/1 2/2/2 3/3/3
f 4/4/4 3/3/5 2/2/2
f 3/3/5 4/4/4 5/5/6
f 6/6/7 4/4/2 7/7/8
f 2/2/2 7/7/8 4/4/2
f 7/7/8 2/2/2 1/1/9
f 8/8/10 9/9/11 10/10/12
f 8/8/10 11/11/13 9/9/14
f 11/11/13 8/8/10 12/12/15
f 8/8/10 13/13/16 14/14/17
f 13/13/16 8/8/10 15/15/18
f 10/16/12 15/15/18 8/8/10
f 16/17/19 10/10/19 9/9/14
f 17/18/20 10/10/19 16/17/19
f 10/10/19 17/18/20 18/19/21
f 19/20/22 18/19/21 17/18/20
f 1/21/23 18/19/24 19/20/22
f 18/19/24 1/21/23 3/22/25
f 5/23/26 15/15/27 3/24/25
f 15/15/27 5/23/26 13/13/28
f 15/15/18 10/16/12 18/25/29
f 20/26/30 13/13/28 5/23/26
f 21/27/31 13/13/28 20/26/30
f 18/25/21 3/24/32 15/15/33
f 14/14/17 13/13/16 21/27/34
f 12/12/35 8/8/35 22/28/35
f 14/14/36 22/28/35 8/8/35
f 22/28/35 14/14/36 23/29/37
f 21/30/31 23/29/37 14/14/36
f 23/29/37 21/30/31 24/31/38
f 24/31/38 21/30/31 25/32/39
f 25/32/39 21/30/31 26/33/40
f 20/34/30 26/33/40 21/30/31
f 26/33/40 20/34/30 27/35/41
f 5/36/26 27/35/41 20/34/30
f 27/35/41 5/36/26 28/37/42
f 4/38/43 28/37/42 5/36/26
f 24/31/38 25/32/39 29/39/44
f 26/33/40 29/39/44 25/32/39
f 29/39/44 26/33/40 30/40/45
f 27/35/41 30/40/45 26/33/40
f 24/31/38 29/39/44 23/29/37
f 31/41/46 23/29/37 29/39/44
f 23/29/37 31/41/46 22/28/35
f 32/42/47 22/28/35 31/41/46
f 33/43/48 31/41/46 29/44/44
f 31/41/46 33/43/48 32/42/47
f 22/28/35 32/42/47 12/12/15
f 12/12/15 32/42/47 11/11/13
f 11/11/13 32/42/47 9/9/14
f 34/45/49 9/9/14 32/42/47
f 35/46/50 32/42/47 33/43/48
f 32/42/47 35/46/50 34/47/49
f 9/9/14 34/45/49 16/17/19
f 16/17/19 34/45/49 17/18/20
f 36/48/51 17/18/20 34/45/49
f 17/18/20 36/48/51 19/20/22
f 19/20/22 36/48/51 1/21/23
f 7/49/52 1/21/23 36/48/51
f 34/47/49 35/46/50 36/50/51
f 36/50/51 35/46/50 7/51/52
f 7/51/52 35/46/50 6/52/53
f 33/43/48 6/52/53 35/46/50
f 6/52/53 33/43/48 30/53/54
f 29/44/44 30/53/54 33/43/48
f 30/40/54 27/35/55 6/54/53
f 28/37/42 6/54/53 27/35/55
f 6/54/53 28/37/42 4/38/43
