# Blender v2.77 (sub 0) OBJ File: ''
# www.blender.org
mtllib XG89 Narrow Legs Left Foot MALE.mtl
o armor_legs_stealth
v -3.693000 2.324251 2.396936
v -3.310400 1.211450 2.383020
v -2.171600 1.093749 2.466516
v -2.493600 0.306850 2.411095
v -1.963900 0.550350 2.461389
v -2.024500 0.219751 2.438195
v -3.072400 0.555052 -1.317664
v -3.514200 0.344452 -0.995398
v -3.227700 1.110252 -1.237098
v -4.158300 1.297253 -0.590857
v -4.440000 2.431253 -0.450964
v -3.130100 0.226852 -1.260291
v 7.182600 2.515953 -2.681188
v 6.581700 2.668852 -2.889440
v 6.939800 2.892353 -2.668249
v 7.128700 2.181853 -2.806921
v 6.434100 1.747853 -3.236853
v 7.272500 1.651350 0.974084
v 7.802200 2.103052 0.365198
v 7.304700 2.581851 0.623743
v 7.813700 2.440652 0.238245
v 7.577700 2.814751 0.309779
v -2.908500 0.037453 -1.019568
v -2.719600 0.272753 -0.642371
v -4.597200 0.045652 0.084435
v -4.332300 0.138651 0.624720
v -5.090900 0.004551 0.647912
v -4.727500 0.008050 1.722619
v -4.138100 0.164451 1.381555
v -4.118400 0.050350 2.049767
v -2.008600 0.360950 1.623986
v -1.919200 0.050350 2.084924
v -1.401500 1.645450 1.804162
v -1.119300 1.880750 2.200649
v -2.455200 3.188751 1.758020
v -2.477800 3.251150 2.334681
v -3.221400 4.767450 1.313198
v -3.492500 5.235550 1.596889
v -3.651700 4.767450 0.189907
v -2.872400 3.135853 -0.544712
v -2.346100 1.799553 -1.017615
v -2.302300 1.880753 -1.578161
v -3.290600 3.213453 -1.095250
v -4.040600 5.246151 0.084438
v 1.856300 0.989052 -2.340125
v 1.819800 0.397454 -2.270545
v 4.154100 1.325552 -2.566443
v 5.218400 0.297453 -2.488074
v 6.594200 1.757252 -1.598426
v 6.434600 0.344452 -2.021033
v 6.832600 0.376253 -0.493445
v 6.858100 1.794853 -0.665319
v 5.808200 0.297451 0.469689
v 5.023700 1.438449 0.841027
v 7.471000 -0.004847 -0.367469
v 6.221100 -0.016650 0.904504
v 2.538000 0.083351 1.680383
v 2.727800 0.449150 1.202356
v 2.718700 1.076150 1.296106
v 6.498000 0.049251 1.337365
v 2.297600 0.031551 2.172570
v 7.871400 0.006853 -0.208533
v 2.347600 0.031551 2.423058
v 7.233500 0.050352 -2.729529
v 6.899900 -0.003748 -2.453895
v 5.491900 0.092753 -3.540565
v 5.377000 -0.006048 -3.084754
v 1.488100 0.072752 -2.685340
v 0.989600 0.043352 -2.983191
v 0.968400 0.032753 -3.257850
v 5.646700 4.525053 0.784878
v 7.192200 3.795752 -0.230748
v 5.457300 4.518052 0.600550
v 4.801100 1.838350 1.935024
v 4.929000 1.834850 2.244106
v 7.032100 3.725153 -0.493443
v 7.514700 2.472452 -0.578893
v 8.051700 2.275953 -0.410925
v 5.001600 4.474552 -2.474888
v 3.551300 1.731352 -3.463172
v 4.936200 4.435652 -2.191199
v 7.174900 2.471253 -1.803747
v 6.744200 3.716953 -1.705115
v 3.558000 1.743153 -3.850623
v 4.993900 3.285254 -1.371861
v 5.101100 3.908653 -1.135289
v 5.145800 3.262953 -0.314244
v 5.201600 3.846353 -0.426792
v 3.318100 4.655653 0.771694
v 3.567600 5.233252 -1.284458
v 3.821900 5.159153 0.293667
v 2.981600 4.840353 -1.662632
v 6.777800 3.822853 -2.024937
v 7.583000 2.298353 -2.169958
v 0.926600 6.722450 1.623011
v 0.539600 7.121251 0.143765
v 0.481000 6.751851 1.824429
v 1.077100 7.103551 0.019009
v 0.207000 7.058852 -1.312534
v -0.228500 7.060053 -1.469517
v 1.359300 5.891952 0.920620
v 0.885800 5.493150 1.187222
v 1.612100 5.924851 -0.136997
v 1.166500 5.589653 -0.096714
v 0.879000 6.035451 -1.149449
v 0.424300 5.697853 -1.279331
v -3.131500 0.157454 -1.225867
v -2.615300 1.834852 -1.699010
v -4.722700 2.620653 -0.087682
v -4.716400 0.213953 -0.048621
v -3.421400 3.038252 -1.201939
v -4.553500 2.810053 0.030970
v -5.036100 2.595952 0.684046
v -5.192800 2.407752 0.637904
v -5.223600 0.185650 0.629846
v -4.845700 0.190351 1.850549
v -4.793800 2.413651 1.863735
v -4.700600 2.588850 1.744838
v -4.071800 4.519250 1.363491
v -4.400100 4.498050 0.607631
v -4.161700 2.626550 2.211879
v -4.156400 0.200950 2.178674
v -2.022500 0.217450 2.438195
v -4.082400 2.850049 2.022670
v -2.510900 3.026450 2.479455
v -3.885300 4.610951 1.391567
v -4.253000 4.550952 0.464809
v -4.220800 5.146152 0.118618
v -3.638200 5.148551 1.660366
v -1.340900 1.857250 2.516809
v 0.587200 5.810751 -0.049595
v 0.434800 5.777853 1.008266
v 0.123800 6.864750 0.175991
v 0.087300 6.560151 1.438931
v 0.092600 5.882553 -0.954136
v -0.475100 6.801252 -1.088169
v 0.840100 0.655053 -3.148231
v 0.802600 0.655053 -3.413856
v 1.426600 1.131453 -2.843299
v 0.998200 0.926752 -3.145056
v 0.955000 0.934952 -3.394812
v 3.717100 1.654852 -3.033484
v 7.048400 2.338352 -1.617468
v 7.306600 2.333652 -0.700719
v 7.415200 2.534752 -1.679968
v 4.853000 1.756050 1.508264
v 7.655100 2.521852 -0.787145
v 7.874800 2.038353 -2.108679
v 8.299700 2.046553 -0.577917
v 2.406700 1.229049 1.887903
v 2.226000 1.062049 2.573205
v 2.187000 1.049051 2.301477
v 2.098600 0.660949 2.316614
v 2.147600 0.662050 2.578088
v 6.592300 0.842050 1.419885
v 8.157400 0.793852 -0.044471
v 5.249200 1.930150 2.144494
v 5.592900 2.061852 2.159387
v 8.004600 2.071253 -0.182409
v 6.715300 1.159650 1.570764
v 7.962800 2.219552 0.181849
v 5.810600 4.285151 0.850307
v 6.107200 4.078052 1.059536
v 7.174400 3.569951 0.331020
v 7.107600 3.636953 -0.012242
v 7.409000 0.737353 -2.800086
v 5.399100 0.799754 -3.581824
v 7.434900 2.091253 -2.380406
v 5.472200 1.104353 -3.765174
v 4.173300 1.958354 -3.963415
v 3.828700 1.830153 -3.823522
v 7.276800 2.263052 -2.704381
v 6.653800 3.673453 -2.175083
v 5.313100 4.106352 -2.865269
v 6.608100 3.607554 -2.534214
v 5.116000 4.253353 -2.579624
v 3.394600 3.782852 -0.191441
v 3.282600 3.840452 -1.019566
v 4.268500 3.146452 -0.919957
v 4.270900 3.125252 -0.581824
vt 0.3009 0.5234
vt 0.2787 0.4077
vt 0.1672 0.3802
vt 0.2105 0.3067
vt 0.1544 0.3234
vt 0.1649 0.2913
vt 0.1544 0.3234
vt 0.2105 0.3067
vt 0.1672 0.3802
vt 0.2787 0.4077
vt 0.3009 0.5234
vt 0.1649 0.2913
vt 0.5827 0.2973
vt 0.5350 0.2524
vt 0.5827 0.2524
vt 0.5571 0.3228
vt 0.4646 0.3228
vt 0.4646 0.3228
vt 0.5571 0.3228
vt 0.5350 0.2524
vt 0.5827 0.2973
vt 0.5827 0.2524
vt 0.7490 0.6752
vt 0.7528 0.6883
vt 0.7822 0.6639
vt 0.7876 0.6794
vt 0.7896 0.6584
vt 0.8014 0.6655
vt 0.8010 0.6841
vt 0.8079 0.6697
vt 0.8343 0.7114
vt 0.8405 0.6991
vt 0.8393 0.7571
vt 0.8461 0.7684
vt 0.8168 0.8018
vt 0.8244 0.8151
vt 0.7954 0.8488
vt 0.7963 0.8687
vt 0.7740 0.8458
vt 0.7557 0.7868
vt 0.7438 0.7403
vt 0.7340 0.7423
vt 0.7454 0.7991
vt 0.7710 0.8677
vt 0.5175 0.8455
vt 0.5127 0.8608
vt 0.5499 0.8712
vt 0.5570 0.9163
vt 0.5895 0.8893
vt 0.5779 0.9334
vt 0.6066 0.9412
vt 0.6046 0.8897
vt 0.6343 0.9398
vt 0.6467 0.8913
vt 0.6053 0.9658
vt 0.6339 0.9654
vt 0.7029 0.9259
vt 0.6943 0.9084
vt 0.6921 0.8848
vt 0.6340 0.9815
vt 0.7119 0.9384
vt 0.6048 0.9769
vt 0.7139 0.9478
vt 0.5729 0.9657
vt 0.5743 0.9548
vt 0.5495 0.9478
vt 0.5525 0.9354
vt 0.5047 0.8695
vt 0.4963 0.8701
vt 0.4941 0.8769
vt 0.1803 0.7381
vt 0.1436 0.7596
vt 0.1794 0.7436
vt 0.2005 0.8407
vt 0.2069 0.8400
vt 0.1458 0.7678
vt 0.1374 0.8110
vt 0.1267 0.8163
vt 0.6250 0.7938
vt 0.6475 0.6843
vt 0.6232 0.7867
vt 0.5811 0.7271
vt 0.5911 0.7683
vt 0.6547 0.6857
vt 0.8744 0.8652
vt 0.8808 0.8850
vt 0.8986 0.8648
vt 0.8933 0.8841
vt 0.9168 0.9669
vt 0.8737 0.9558
vt 0.9025 0.9524
vt 0.8599 0.9707
vt 0.5891 0.7781
vt 0.5705 0.7248
vt 0.9072 0.3234
vt 0.9174 0.3779
vt 0.9123 0.3089
vt 0.9081 0.3790
vt 0.9096 0.4326
vt 0.9134 0.4481
vt 0.8904 0.3438
vt 0.8835 0.3237
vt 0.8878 0.3773
vt 0.8789 0.3773
vt 0.8899 0.4177
vt 0.8833 0.4369
vt 0.9183 0.5875
vt 0.9041 0.6435
vt 0.9236 0.5855
vt 0.8993 0.5295
vt 0.9072 0.6536
vt 0.8658 0.5896
vt 0.8960 0.5359
vt 0.8780 0.6445
vt 0.8618 0.5934
vt 0.8576 0.5689
vt 0.8605 0.5647
vt 0.8859 0.5130
vt 0.8889 0.5066
vt 0.8725 0.4779
vt 0.8695 0.4843
vt 0.8462 0.5383
vt 0.8445 0.5441
vt 0.8231 0.5971
vt 0.8333 0.6171
vt 0.8356 0.5319
vt 0.8590 0.4679
vt 0.8611 0.4621
vt 0.8298 0.4275
vt 0.8333 0.5400
vt 0.8089 0.5123
vt 0.8194 0.5978
vt 0.8330 0.6251
vt 0.8292 0.6510
vt 0.8065 0.6050
vt 0.8055 0.5187
vt 0.8049 0.4576
vt 0.8036 0.6082
vt 0.7994 0.4512
vt 0.8273 0.6580
vt 0.8752 0.6531
vt 0.8304 0.4148
vt 0.4186 0.6888
vt 0.4196 0.7274
vt 0.4395 0.6980
vt 0.4336 0.7413
vt 0.4109 0.7367
vt 0.4361 0.7602
vt 0.4250 0.6541
vt 0.4191 0.6403
vt 0.4067 0.6876
vt 0.4420 0.6517
vt 0.4475 0.7018
vt 0.4467 0.6401
vt 0.8667 0.7973
vt 0.8671 0.7750
vt 0.8624 0.7766
vt 0.8713 0.7962
vt 0.8563 0.8150
vt 0.8646 0.8078
vt 0.8687 0.8118
vt 0.8526 0.7791
vt 0.8716 0.8008
vt 0.8414 0.8863
vt 0.8338 0.8812
vt 0.8450 0.8123
vt 0.8440 0.7913
vt 0.8466 0.8947
vt 0.7827 0.9602
vt 0.7809 0.9521
vt 0.8217 0.8768
vt 0.7646 0.9509
vt 0.7621 0.9587
vt 0.7795 0.9660
vt 0.7862 0.9782
vt 0.7664 0.9268
vt 0.7832 0.9269
vt 0.7260 0.8647
vt 0.7390 0.8646
vt 0.7186 0.8646
vt 0.7648 0.9647
vt 0.7571 0.9758
vt 0.7838 0.9901
vt 0.7591 0.9875
vt 0.7156 0.7828
vt 0.7042 0.7764
vt 0.7136 0.8696
vt 0.7265 0.7880
vt 0.7090 0.7731
vt 0.7107 0.7600
vt 0.7067 0.7567
vt 0.7045 0.7706
vt 0.7259 0.7507
vt 0.7318 0.7685
vt 0.7177 0.7423
vt 0.7137 0.7381
vt 0.7808 0.5420
vt 0.7013 0.5665
vt 0.7348 0.5971
vt 0.7754 0.5202
vt 0.7802 0.5566
vt 0.6637 0.5451
vt 0.6659 0.5735
vt 0.7004 0.5384
vt 0.7289 0.6007
vt 0.7231 0.6048
vt 0.6676 0.6165
vt 0.7018 0.5785
vt 0.6739 0.6193
vt 0.7116 0.6881
vt 0.7137 0.6976
vt 0.7088 0.6757
vt 0.6870 0.6627
vt 0.6830 0.6718
vt 0.6638 0.6250
vt 0.6799 0.6799
vt 0.6576 0.6169
vt 0.6182 0.5667
vt 0.6301 0.6144
vt 0.6181 0.5419
vt 0.5815 0.5635
vt 0.6202 0.6151
vt 0.5840 0.5384
vt 0.6244 0.6237
vt 0.5814 0.5756
vt 0.5600 0.6029
vt 0.5536 0.5998
vt 0.6139 0.6188
vt 0.5039 0.5278
vt 0.5005 0.5508
vt 0.5027 0.5616
vt 0.5486 0.5971
vt 0.6074 0.6731
vt 0.6103 0.6796
vt 0.5811 0.6782
vt 0.6032 0.6639
vt 0.5788 0.6896
vt 0.5772 0.6986
vt 0.2698 0.5827
vt 0.3041 0.5760
vt 0.2817 0.5688
vt 0.2676 0.5405
vt 0.2638 0.5461
vt 0.2493 0.5331
vt 0.2616 0.6279
vt 0.2676 0.5092
vn -0.0771 -0.0389 0.9962
vn -0.0770 -0.0387 0.9963
vn -0.0748 -0.0433 0.9962
vn -0.0736 -0.0456 0.9962
vn -0.0682 -0.0574 0.9960
vn -0.5756 -0.0421 -0.8166
vn -0.5756 -0.0422 -0.8166
vn -0.5755 -0.0424 -0.8166
vn -0.5756 -0.0423 -0.8166
vn -0.5758 -0.0415 -0.8165
vn 0.3763 0.2727 -0.8854
vn 0.3766 0.2731 -0.8852
vn 0.3763 0.2732 -0.8853
vn 0.3766 0.2730 -0.8852
vn 0.3769 0.2734 -0.8849
vn 0.6277 0.2551 0.7354
vn 0.6277 0.2552 0.7354
vn 0.6277 0.2554 0.7353
vn 0.4686 -0.8428 -0.2647
vn 0.7941 -0.4828 0.3691
vn -0.1819 -0.9527 -0.2434
vn 0.5662 -0.8116 0.1437
vn -0.4787 -0.8724 -0.0984
vn -0.2933 -0.9181 0.2666
vn 0.4575 -0.7996 -0.3890
vn -0.0696 -0.9328 0.3536
vn 0.4092 -0.4403 -0.7992
vn 0.5268 -0.8489 -0.0417
vn 0.6262 -0.0109 -0.7795
vn 0.9837 0.1795 -0.0070
vn 0.6921 0.3355 -0.6390
vn 0.4259 0.6476 0.6318
vn 0.9017 0.3335 -0.2752
vn 0.3226 0.8822 0.3428
vn 0.8939 0.3619 -0.2647
vn 0.9259 0.3355 0.1734
vn 0.9440 0.0818 0.3197
vn 0.8375 0.1507 -0.5252
vn 0.1472 0.6410 -0.7532
vn 0.0416 0.8827 -0.4682
vn -0.3204 0.4822 0.8154
vn -0.3147 -0.3022 0.8998
vn -0.2012 0.3460 0.9163
vn -0.1562 -0.6307 0.7601
vn -0.7192 0.2406 0.6518
vn -0.5454 -0.6434 0.5372
vn -0.7671 -0.5936 -0.2433
vn -0.8896 0.3570 -0.2849
vn -0.3944 -0.5742 -0.7174
vn -0.4608 0.4580 -0.7602
vn -0.1473 -0.9883 -0.0385
vn -0.0736 -0.9908 -0.1137
vn -0.5530 -0.6914 -0.4648
vn -0.5734 -0.2545 -0.7787
vn -0.5570 0.4593 -0.6919
vn 0.3779 -0.6664 0.6427
vn -0.6561 -0.7402 -0.1470
vn 0.6513 -0.7420 0.1588
vn -0.3276 -0.7023 0.6320
vn 0.5466 -0.6829 -0.4846
vn -0.0766 -0.9953 0.0585
vn 0.1353 -0.6084 -0.7820
vn -0.0252 -0.9965 0.0794
vn -0.3585 -0.7041 0.6129
vn -0.6073 -0.6248 0.4906
vn -0.5332 -0.7121 -0.4566
vn 0.0313 0.8807 0.4725
vn 0.7130 0.6999 -0.0413
vn -0.6669 0.6804 -0.3039
vn -0.5838 0.8105 -0.0459
vn -0.0858 0.2918 0.9526
vn 0.0347 0.4061 -0.9131
vn -0.1842 0.8458 -0.5007
vn 0.7898 0.5806 0.1977
vn -0.1887 0.8984 -0.3964
vn -0.5322 0.8139 0.2331
vn -0.4660 0.6412 0.6096
vn -0.0407 0.8341 0.5501
vn 0.3767 0.3883 0.8410
vn -0.3686 0.3315 -0.8685
vn 0.4855 -0.5322 -0.6936
vn 0.8038 0.3736 -0.4628
vn 0.6472 -0.6023 0.4673
vn 0.9089 0.2942 0.2954
vn -0.4505 0.1282 0.8835
vn 0.0613 0.9175 -0.3928
vn 0.1877 0.8588 0.4766
vn -0.6639 0.2768 -0.6947
vn 0.6677 0.7171 -0.1997
vn 0.6730 0.5733 -0.4673
vn 0.6078 0.4327 0.6659
vn -0.1899 0.9714 0.1426
vn -0.2167 0.3790 0.8997
vn 0.6021 0.7957 -0.0654
vn 0.3705 0.6876 -0.6243
vn -0.4330 0.5296 -0.7294
vn 0.9031 -0.2487 0.3500
vn 0.0731 -0.8618 0.5020
vn 0.9563 -0.2162 -0.1968
vn 0.2503 -0.9590 -0.1325
vn 0.6733 -0.1187 -0.7298
vn -0.0853 -0.7364 -0.6711
vn -0.1384 -0.5500 -0.8236
vn -0.0057 0.0155 -0.9998
vn -0.7432 0.3737 -0.5549
vn -0.6493 -0.3698 -0.6646
vn -0.4131 0.4131 -0.8116
vn -0.7291 0.4982 -0.4692
vn -0.8449 0.5343 -0.0241
vn -0.9487 0.2964 -0.1097
vn -0.9440 -0.2882 -0.1606
vn -0.7073 -0.3380 0.6208
vn -0.7500 0.2901 0.5944
vn -0.7116 0.5319 0.4589
vn -0.5905 0.5904 0.5502
vn -0.7733 0.6241 -0.1113
vn -0.3827 0.3434 0.8577
vn -0.2622 -0.3478 0.9001
vn 0.2962 -0.5211 0.8004
vn -0.4179 0.4850 0.7682
vn 0.0198 0.3417 0.9396
vn -0.8000 0.3982 0.4487
vn -0.9177 0.3958 0.0337
vn -0.7915 0.5435 -0.2796
vn -0.4685 0.5700 0.6749
vn 0.5402 0.0939 0.8362
vn -0.6383 -0.7665 0.0710
vn -0.7459 -0.6399 0.1844
vn -0.9007 0.3723 0.2239
vn -0.8973 0.0607 0.4371
vn -0.7424 -0.6693 -0.0287
vn -0.9915 0.0876 -0.0955
vn -0.8748 0.1458 0.4620
vn -0.7918 0.0427 -0.6092
vn -0.5277 0.7264 0.4401
vn -0.6886 0.6271 0.3642
vn -0.5625 0.6138 -0.5539
vn -0.2349 0.8652 0.4429
vn -0.5676 0.7513 0.3367
vn -0.6234 0.7800 -0.0537
vn 0.1710 0.9742 -0.1472
vn -0.3502 0.8790 -0.3236
vn 0.2413 0.9694 0.0443
vn 0.8196 0.3091 -0.4824
vn 0.9422 0.3136 0.1178
vn -0.6739 0.6789 -0.2914
vn -0.5105 0.5038 0.6968
vn -0.8713 0.4831 -0.0854
vn -0.9894 -0.0375 -0.1399
vn -0.6002 -0.1212 0.7906
vn 0.5155 -0.2888 0.8067
vn 0.9245 -0.1718 0.3403
vn 0.1616 0.1039 0.9814
vn 0.1687 0.1268 0.9774
vn 0.9134 0.1532 0.3769
vn 0.5789 -0.2588 0.7732
vn 0.9325 0.0866 0.3507
vn 0.3762 0.6059 0.7010
vn 0.3300 0.6690 0.6660
vn 0.7264 0.5939 0.3459
vn 0.7369 0.5701 0.3632
vn 0.7139 -0.0565 -0.6980
vn 0.1944 -0.2233 -0.9551
vn 0.7062 0.1813 -0.6844
vn 0.3149 -0.2607 -0.9126
vn -0.1800 0.1475 -0.9725
vn -0.0960 0.1862 -0.9778
vn 0.7649 0.0871 -0.6382
vn 0.5741 0.5593 -0.5979
vn 0.0857 0.7283 -0.6799
vn 0.5899 0.5992 -0.5412
vn 0.1315 0.6395 -0.7575
vn -0.6741 -0.6435 0.3626
vn -0.7501 -0.5926 -0.2933
vn -0.2738 -0.9027 -0.3319
vn -0.2259 -0.9303 0.2888
usemtl wire_198225087.035
s 1
f 1/1/1 2/2/1 3/3/2
f 3/3/2 2/2/1 4/4/3
f 5/5/4 3/3/2 4/4/3
f 4/4/3 6/6/5 5/5/4
f 7/7/6 8/8/7 9/9/8
f 10/10/9 9/9/8 8/8/7
f 9/9/8 10/10/9 11/11/7
f 8/8/7 7/7/6 12/12/10
f 13/13/11 14/14/12 15/15/13
f 16/16/14 14/14/12 13/13/11
f 14/14/12 16/16/14 17/17/15
f 18/18/16 19/19/16 20/20/17
f 20/20/17 19/19/16 21/21/17
f 20/20/17 21/21/17 22/22/18
f 23/23/19 24/24/20 25/25/21
f 25/25/21 24/24/20 26/26/22
f 25/25/21 26/26/22 27/27/23
f 27/27/23 26/26/22 28/28/24
f 29/29/25 28/28/24 26/26/22
f 28/28/24 29/29/25 30/30/26
f 30/30/26 29/29/25 31/31/27
f 30/30/26 31/31/27 32/32/28
f 32/32/28 31/31/27 33/33/29
f 32/32/28 33/33/29 34/34/30
f 35/35/31 33/33/29 31/31/27
f 34/34/30 33/33/29 35/35/31
f 34/34/30 35/35/31 36/36/32
f 37/37/33 35/35/31 29/29/25
f 35/35/31 37/37/33 36/36/32
f 35/35/31 31/31/27 29/29/25
f 36/36/32 37/37/33 38/38/34
f 29/29/25 39/39/35 37/37/33
f 39/39/35 38/38/34 37/37/33
f 26/26/22 39/39/35 29/29/25
f 26/26/22 40/40/36 39/39/35
f 24/24/20 40/40/36 26/26/22
f 24/24/20 41/41/37 40/40/36
f 23/23/19 41/41/37 24/24/20
f 42/42/38 41/41/37 23/23/19
f 43/43/39 41/41/37 42/42/38
f 43/43/39 40/40/36 41/41/37
f 43/43/39 39/39/35 40/40/36
f 44/44/40 39/39/35 43/43/39
f 38/38/34 39/39/35 44/44/40
f 45/45/41 46/46/42 47/47/43
f 47/47/43 46/46/42 48/48/44
f 47/47/43 48/48/44 49/49/45
f 49/49/45 48/48/44 50/50/46
f 49/49/45 51/51/47 52/52/48
f 49/49/45 50/50/46 51/51/47
f 51/51/47 53/53/49 52/52/48
f 52/52/48 53/53/49 54/54/50
f 55/55/51 51/51/47 50/50/46
f 56/56/52 51/51/47 55/55/51
f 53/53/49 51/51/47 56/56/52
f 53/53/49 56/56/52 57/57/53
f 58/58/54 53/53/49 57/57/53
f 54/54/50 53/53/49 58/58/54
f 54/54/50 58/58/54 59/59/55
f 57/57/53 56/56/52 60/60/56
f 57/57/53 60/60/56 61/61/57
f 55/55/51 60/60/56 56/56/52
f 60/60/56 55/55/51 62/62/58
f 61/61/57 60/60/56 63/63/59
f 62/62/58 55/55/51 64/64/60
f 65/65/61 55/55/51 50/50/46
f 64/64/60 55/55/51 65/65/61
f 64/64/60 65/65/61 66/66/62
f 65/65/61 67/67/63 66/66/62
f 50/50/46 67/67/63 65/65/61
f 66/66/62 68/68/64 69/69/65
f 66/66/62 67/67/63 68/68/64
f 66/66/62 69/69/65 70/70/66
f 67/67/63 46/46/42 68/68/64
f 67/67/63 48/48/44 46/46/42
f 50/50/46 48/48/44 67/67/63
f 71/71/67 72/72/68 73/73/69
f 74/74/70 71/71/67 73/73/69
f 71/71/67 74/74/70 75/75/71
f 73/73/69 72/72/68 76/76/72
f 76/76/72 77/77/73 73/73/69
f 73/73/69 77/77/73 74/74/70
f 76/76/72 72/72/68 77/77/73
f 77/77/73 72/72/68 78/78/74
f 79/79/75 80/80/76 81/81/77
f 82/82/78 81/81/77 80/80/76
f 81/81/77 82/82/78 83/83/79
f 80/80/76 79/79/75 84/84/80
f 85/85/81 86/86/82 87/87/83
f 87/87/83 86/86/82 88/88/84
f 88/88/84 89/89/85 87/87/83
f 86/86/82 90/90/86 88/88/84
f 88/88/84 90/90/86 91/91/87
f 88/88/84 91/91/87 89/89/85
f 86/86/82 92/92/88 90/90/86
f 92/92/88 86/86/82 85/85/81
f 89/89/85 90/90/86 92/92/88
f 91/91/87 90/90/86 89/89/85
f 83/83/79 93/93/89 81/81/77
f 81/81/77 93/93/89 79/79/75
f 82/82/78 93/93/89 83/83/79
f 93/93/89 82/82/78 94/94/90
f 95/95/91 96/96/92 97/97/93
f 98/98/94 96/96/92 95/95/91
f 99/99/95 96/96/92 98/98/94
f 96/96/92 99/99/95 100/100/96
f 95/95/91 101/101/97 98/98/94
f 95/95/91 102/102/98 101/101/97
f 95/95/91 97/97/93 102/102/98
f 103/103/99 101/101/97 104/104/100
f 98/98/94 101/101/97 103/103/99
f 101/101/97 102/102/98 104/104/100
f 98/98/94 105/105/101 99/99/95
f 98/98/94 103/103/99 105/105/101
f 104/104/100 105/105/101 103/103/99
f 106/106/102 105/105/101 104/104/100
f 106/106/102 99/99/95 105/105/101
f 99/99/95 106/106/102 100/100/96
f 107/107/103 108/108/104 23/109/19
f 23/109/19 25/110/21 107/107/103
f 23/109/19 108/108/104 42/111/38
f 109/112/105 107/107/103 110/113/106
f 111/114/107 107/107/103 109/112/105
f 108/108/104 107/107/103 111/114/107
f 112/115/108 109/112/105 113/116/109
f 111/114/107 109/112/105 112/115/108
f 109/112/105 114/117/110 113/116/109
f 109/112/105 110/113/106 114/117/110
f 110/113/106 115/118/111 114/117/110
f 110/113/106 27/119/23 115/118/111
f 110/113/106 25/110/21 27/119/23
f 107/107/103 25/110/21 110/113/106
f 27/119/23 28/120/24 115/118/111
f 114/117/110 115/118/111 116/121/112
f 115/118/111 28/120/24 116/121/112
f 114/117/110 117/122/113 113/116/109
f 117/122/113 114/117/110 116/121/112
f 118/123/114 119/124/115 113/116/109
f 117/122/113 118/123/114 113/116/109
f 113/116/109 119/124/115 120/125/116
f 113/116/109 120/125/116 112/115/108
f 121/126/117 118/123/114 117/122/113
f 117/122/113 122/127/118 121/126/117
f 116/121/112 122/127/118 117/122/113
f 28/120/24 122/127/118 116/121/112
f 28/120/24 30/128/26 122/127/118
f 123/129/119 121/126/117 122/127/118
f 123/129/119 122/127/118 30/128/26
f 124/130/120 118/123/114 121/126/117
f 121/126/117 125/131/121 124/130/120
f 123/129/119 125/131/121 121/126/117
f 124/130/120 119/124/115 118/123/114
f 126/132/122 119/124/115 124/130/120
f 126/132/122 120/125/116 119/124/115
f 120/125/116 126/132/122 127/133/123
f 127/133/123 112/115/108 120/125/116
f 112/115/108 127/133/123 128/134/124
f 128/134/124 127/133/123 126/132/122
f 124/130/120 129/135/125 126/132/122
f 128/134/124 126/132/122 129/135/125
f 124/130/120 125/131/121 36/136/32
f 129/135/125 124/130/120 36/136/32
f 130/137/126 125/131/121 123/129/119
f 36/136/32 125/131/121 130/137/126
f 36/136/32 38/138/34 129/135/125
f 130/137/126 34/139/30 36/136/32
f 129/135/125 44/140/40 128/134/124
f 44/140/40 129/135/125 38/138/34
f 128/134/124 43/141/39 112/115/108
f 43/141/39 128/134/124 44/140/40
f 111/114/107 112/115/108 43/141/39
f 108/108/104 43/141/39 42/111/38
f 111/114/107 43/141/39 108/108/104
f 130/137/126 123/129/119 34/139/30
f 32/142/28 34/139/30 123/129/119
f 30/128/26 32/142/28 123/129/119
f 131/143/127 132/144/128 133/145/129
f 133/145/129 132/144/128 134/146/130
f 131/143/127 102/147/98 132/144/128
f 97/148/93 132/144/128 102/147/98
f 132/144/128 97/148/93 134/146/130
f 135/149/131 106/150/102 131/143/127
f 133/145/129 135/149/131 131/143/127
f 104/151/100 131/143/127 106/150/102
f 102/147/98 131/143/127 104/151/100
f 133/145/129 136/152/132 135/149/131
f 96/153/92 136/152/132 133/145/129
f 134/146/130 96/153/92 133/145/129
f 96/153/92 134/146/130 97/148/93
f 100/154/96 136/152/132 96/153/92
f 100/154/96 135/149/131 136/152/132
f 106/150/102 135/149/131 100/154/96
f 137/155/133 70/156/66 69/157/65
f 70/156/66 137/155/133 138/158/134
f 137/155/133 139/159/135 140/160/136
f 137/155/133 140/160/136 141/161/137
f 139/159/135 137/155/133 68/162/64
f 137/155/133 141/161/137 138/163/134
f 137/155/133 69/157/65 68/162/64
f 80/164/76 139/159/135 142/165/138
f 141/161/137 139/159/135 80/164/76
f 139/159/135 141/161/137 140/160/136
f 45/166/41 142/165/138 139/159/135
f 139/159/135 46/167/42 45/166/41
f 68/162/64 46/167/42 139/159/135
f 141/161/137 80/164/76 84/168/80
f 80/164/76 142/165/138 82/169/78
f 142/165/138 143/170/139 82/169/78
f 47/171/43 143/170/139 142/165/138
f 45/166/41 47/171/43 142/165/138
f 82/169/78 144/172/140 77/173/73
f 145/174/141 82/169/78 77/173/73
f 82/169/78 145/174/141 94/175/90
f 143/170/139 144/172/140 82/169/78
f 143/170/139 52/176/48 144/172/140
f 143/170/139 49/177/45 52/176/48
f 47/171/43 49/177/45 143/170/139
f 146/178/142 144/172/140 54/179/50
f 146/178/142 77/173/73 144/172/140
f 52/176/48 54/179/50 144/172/140
f 77/173/73 146/178/142 74/180/70
f 147/181/143 145/174/141 77/173/73
f 78/182/74 147/181/143 77/173/73
f 145/174/141 147/181/143 148/183/144
f 94/175/90 145/174/141 148/183/144
f 149/184/145 147/181/143 78/182/74
f 148/183/144 147/181/143 149/184/145
f 74/180/70 150/185/146 151/186/147
f 146/178/142 150/185/146 74/180/70
f 74/180/70 151/186/147 75/187/71
f 59/188/55 150/185/146 146/178/142
f 146/178/142 54/179/50 59/188/55
f 151/186/147 150/185/146 152/189/148
f 152/189/148 150/185/146 153/190/149
f 154/191/150 152/189/148 153/190/149
f 154/191/150 151/192/147 152/189/148
f 150/185/146 57/193/53 153/190/149
f 59/188/55 57/193/53 150/185/146
f 59/188/55 58/194/54 57/193/53
f 153/190/149 57/193/53 61/195/57
f 153/190/149 63/196/59 154/191/150
f 153/190/149 61/195/57 63/196/59
f 154/197/150 155/198/151 75/199/71
f 155/198/151 154/197/150 63/200/59
f 154/197/150 75/199/71 151/201/147
f 62/202/58 156/203/152 155/198/151
f 155/198/151 60/204/56 62/202/58
f 157/205/153 155/198/151 158/206/154
f 75/199/71 155/198/151 157/205/153
f 155/198/151 63/200/59 60/204/56
f 159/207/155 155/198/151 156/203/152
f 158/206/154 155/198/151 160/208/156
f 159/207/155 161/209/157 155/198/151
f 161/209/157 160/208/156 155/198/151
f 157/205/153 162/210/158 75/199/71
f 75/199/71 162/210/158 71/211/67
f 163/212/159 157/205/153 158/206/154
f 162/210/158 157/205/153 163/212/159
f 160/208/156 164/213/160 158/206/154
f 163/212/159 158/206/154 164/213/160
f 164/213/160 160/208/156 161/209/157
f 164/213/160 161/209/157 165/214/161
f 165/214/161 163/212/159 164/213/160
f 165/214/161 161/209/157 159/207/155
f 78/215/74 159/207/155 156/203/152
f 165/214/161 159/207/155 78/215/74
f 72/216/68 165/214/161 78/215/74
f 165/214/161 162/210/158 163/212/159
f 72/216/68 162/210/158 165/214/161
f 78/215/74 156/203/152 149/217/145
f 156/203/152 62/202/58 166/218/162
f 166/218/162 148/219/144 156/203/152
f 149/217/145 156/203/152 148/219/144
f 64/220/60 166/218/162 62/202/58
f 167/221/163 168/222/164 166/218/162
f 167/221/163 166/218/162 66/223/62
f 166/218/162 168/222/164 94/224/90
f 166/218/162 64/220/60 66/223/62
f 148/219/144 166/218/162 94/224/90
f 169/225/165 167/221/163 170/226/166
f 170/226/166 167/221/163 171/227/167
f 169/225/165 172/228/168 167/221/163
f 167/221/163 172/228/168 168/222/164
f 70/229/66 167/221/163 66/223/62
f 138/230/134 167/221/163 70/229/66
f 141/231/137 167/221/163 138/230/134
f 84/232/80 171/227/167 167/221/163
f 84/232/80 167/221/163 141/231/137
f 168/222/164 172/228/168 173/233/169
f 94/224/90 168/222/164 173/233/169
f 94/224/90 173/233/169 93/234/89
f 174/235/170 173/233/169 175/236/171
f 173/233/169 172/228/168 175/236/171
f 173/233/169 174/235/170 176/237/172
f 93/234/89 173/233/169 176/237/172
f 175/236/171 172/228/168 169/225/165
f 169/225/165 174/235/170 175/236/171
f 174/235/170 169/225/165 170/226/166
f 176/237/172 174/235/170 170/226/166
f 176/237/172 170/226/166 171/227/167
f 176/237/172 171/227/167 79/238/75
f 93/234/89 176/237/172 79/238/75
f 79/238/75 171/227/167 84/232/80
f 71/211/67 162/210/158 72/216/68
f 177/239/173 92/240/88 178/241/174
f 178/241/174 179/242/175 177/239/173
f 179/242/175 180/243/176 177/239/173
f 180/243/176 87/244/83 177/239/173
f 89/245/85 177/239/173 87/244/83
f 177/239/173 89/245/85 92/240/88
f 92/240/88 85/246/81 178/241/174
f 85/246/81 179/242/175 178/241/174
f 85/246/81 180/243/176 179/242/175
f 87/244/83 180/243/176 85/246/81
