# Blender v2.74 (sub 0) OBJ File: ''
# www.blender.org
mtllib belt.mtl
o fantasy_pants
v -2.946276 -1.767486 -0.782349
v -2.287715 3.314965 -3.000849
v -0.052910 -5.223686 -0.857713
v -0.783076 -2.612213 -0.055659
v -1.909340 -4.957222 -0.351567
v -0.037162 -2.512741 -1.469921
v -3.826353 1.422081 -1.349283
v -3.390204 2.745796 -1.167396
v -3.348922 1.446289 -0.307440
v -1.784689 1.858841 0.292805
v -1.614333 3.337120 -0.925434
v -3.812634 2.356247 -1.832990
v 0.451603 3.915276 -2.725952
v -3.211507 2.642663 -3.208606
v -1.876110 -0.730103 0.758457
v -3.261024 -0.048180 -0.055506
v -3.756948 0.101227 -0.858765
v -3.091805 -4.721054 -0.263942
v -4.253734 -9.517342 -0.515730
v -2.328028 -9.783730 -0.652546
v -0.058444 -10.064804 -1.109632
v -5.284486 -14.226273 -0.774657
v -2.799282 -14.587585 -0.946291
v -6.814708 -20.536873 -0.644798
v -3.631724 -21.623741 -0.656254
v 0.048857 -14.979912 -1.269724
v -0.323754 -21.540089 -1.111934
v -0.204403 -28.458088 -0.432101
v -4.256480 -28.242653 -0.022641
v -8.548719 -27.250599 -0.015849
v -5.062745 -38.202717 0.848430
v -9.198752 -37.704597 0.718126
v -9.499863 -47.977745 1.275722
v -5.688705 -48.932426 1.594637
v -1.433413 -48.533459 1.598284
v -0.309045 -38.615288 0.587209
v 0.395900 3.419456 0.426812
v 0.434821 -2.749062 1.071943
v 0.422463 -0.838334 2.456400
v 0.460053 -2.782600 -1.639735
v 0.402123 2.117210 1.980191
v 3.811603 -1.690002 -0.778845
v 0.986712 -5.290520 -0.867387
v 2.836599 -5.012489 -0.359582
v 1.666324 -2.542511 -0.057560
v 0.932932 -2.448265 -1.475460
v 4.655316 1.501488 -1.345985
v 4.189435 2.802788 -1.165889
v 2.409431 3.365891 -0.926307
v 2.600184 1.899330 0.293373
v 4.171587 1.511444 -0.305126
v 4.623675 2.442711 -1.831449
v 2.724298 -0.691818 0.758137
v 4.098067 0.000595 -0.054441
v 4.596972 0.171456 -0.857508
v 3.991737 -4.726532 -0.272897
v 3.255733 -9.756378 -0.665895
v 5.171428 -9.459892 -0.526788
v 0.965828 -10.036201 -1.126304
v 6.160931 -14.136009 -0.785498
v 3.649949 -14.502762 -0.967312
v 4.639828 -21.571545 -0.682872
v 7.771607 -20.440063 -0.650302
v 0.812587 -14.908295 -1.298615
v 1.279329 -21.504639 -1.153961
v 1.333467 -28.461864 -0.484294
v 5.406805 -28.195652 -0.047740
v 9.672886 -27.132473 -0.012286
v 6.331923 -38.140919 0.826696
v 7.070746 -48.861061 1.574714
v 10.891376 -47.852486 1.283897
v 10.486806 -37.580902 0.726299
v 2.806787 -48.514927 1.552797
v 1.583309 -38.621529 0.531482
v -0.408177 -5.206741 -1.264489
v -1.960810 -4.900093 -0.963799
v -0.744752 -2.193733 -0.508892
v -0.348091 -2.214462 -1.589789
v -1.527632 -0.607819 0.263355
v -2.901224 -0.018707 -0.556683
v -3.383383 0.042786 -0.993855
v -3.383383 0.042786 -0.993855
v -3.137451 -4.703964 -0.879252
v -2.415006 -9.736313 -1.260891
v -4.310720 -9.473511 -1.127056
v -0.172708 -10.025505 -1.708900
v -5.325540 -14.205925 -1.390379
v -2.862714 -14.573769 -1.559132
v -6.837966 -20.564415 -1.261459
v -3.678397 -21.663109 -1.271297
v -0.037305 -14.971176 -1.873755
v -0.401756 -21.574257 -1.722112
v -0.263686 -28.518764 -1.044434
v -4.292492 -28.293266 -0.637698
v -8.559609 -27.298122 -0.631600
v -5.072325 -38.253414 0.232593
v -9.472058 -48.017235 0.659788
v -9.196276 -37.742901 0.101476
v -5.666288 -48.976524 0.978885
v -1.450548 -48.584156 0.983040
v -0.348045 -38.674816 -0.026675
v 0.427718 -2.234657 0.729515
v 0.421464 -0.706253 1.852749
v 0.430142 -2.165939 -1.656605
v 3.584314 -1.560966 -0.957886
v 1.326950 -5.267715 -1.279340
v 1.599810 -2.120422 -0.506203
v 2.883035 -4.956406 -0.973586
v 1.206487 -2.142387 -1.587124
v 2.373240 -0.571495 0.263803
v 3.738177 0.027847 -0.555889
v 4.223982 0.109810 -0.992378
v 4.223982 0.109810 -0.992378
v 4.035994 -4.708206 -0.888625
v 3.333681 -9.709892 -1.277208
v 5.220080 -9.415817 -1.140012
v 1.048949 -10.002426 -1.739994
v 4.533392 0.161041 -1.396210
v 6.209730 -14.114525 -1.399952
v 3.709262 -14.489265 -1.582194
v 7.808136 -20.466370 -1.265964
v 4.696331 -21.607735 -1.294773
v 0.881791 -14.902527 -1.913344
v 1.357827 -21.536873 -1.765178
v 1.396838 -28.520905 -1.096566
v 5.449423 -28.244926 -0.661593
v 9.693497 -27.179356 -0.628138
v 6.346594 -38.191349 0.210939
v 10.868720 -47.892067 0.667757
v 7.053098 -48.905209 0.958797
v 10.489327 -37.619045 0.109636
v 2.828653 -48.565426 0.937702
v 1.627524 -38.680523 -0.082099
v -15.996744 -32.920189 -7.113285
vt 0.507575 0.331772
vt 0.502445 0.350630
vt 0.494209 0.333786
vt 0.507826 0.351310
vt 0.287803 0.580928
vt 0.287027 0.569006
vt 0.298727 0.567509
vt 0.300448 0.583223
vt 0.282126 0.583016
vt 0.280415 0.573962
vt 0.315261 0.602124
vt 0.292497 0.599523
vt 0.285021 0.595463
vt 0.296463 0.545090
vt 0.285027 0.556558
vt 0.278562 0.539014
vt 0.301350 0.519568
vt 0.278509 0.562508
vt 0.486897 0.356828
vt 0.485699 0.335548
vt 0.477082 0.301039
vt 0.490948 0.299022
vt 0.507291 0.296881
vt 0.469415 0.267153
vt 0.487309 0.264423
vt 0.458068 0.221749
vt 0.480953 0.213754
vt 0.507816 0.261452
vt 0.504799 0.214190
vt 0.505310 0.164325
vt 0.476116 0.166082
vt 0.445232 0.173449
vt 0.469802 0.094339
vt 0.440018 0.098138
vt 0.437329 0.024112
vt 0.464749 0.017039
vt 0.495438 0.019700
vt 0.504042 0.091125
vt 0.314185 0.574586
vt 0.314451 0.524666
vt 0.314564 0.542464
vt 0.308259 0.500593
vt 0.312941 0.499885
vt 0.314298 0.561992
vt 0.515065 0.331238
vt 0.528411 0.333148
vt 0.520102 0.351009
vt 0.514821 0.351725
vt 0.340830 0.577536
vt 0.328304 0.581403
vt 0.329573 0.565218
vt 0.341323 0.564974
vt 0.347954 0.569448
vt 0.346523 0.579641
vt 0.332668 0.541926
vt 0.327225 0.517464
vt 0.349633 0.532892
vt 0.343795 0.551711
vt 0.350198 0.557032
vt 0.535606 0.357045
vt 0.536751 0.335151
vt 0.531192 0.298937
vt 0.545014 0.300977
vt 0.514674 0.297036
vt 0.551910 0.267225
vt 0.533794 0.264709
vt 0.540571 0.213713
vt 0.563199 0.221709
vt 0.513324 0.261929
vt 0.516355 0.214365
vt 0.516393 0.164220
vt 0.545764 0.165933
vt 0.576564 0.173380
vt 0.551929 0.094208
vt 0.556712 0.016909
vt 0.584299 0.023985
vt 0.581902 0.098035
vt 0.525999 0.019619
vt 0.517680 0.090984
vt 0.317659 0.499399
vt 0.201109 0.159634
vt 0.202150 0.153606
vt 0.213658 0.158264
vt 0.211959 0.162374
vt 0.202369 0.149112
vt 0.183463 0.153606
vt 0.183792 0.146317
vt 0.182915 0.162429
vt 0.165270 0.144235
vt 0.164886 0.153825
vt 0.140500 0.141166
vt 0.137651 0.153770
vt 0.164338 0.164785
vt 0.139185 0.166155
vt 0.112443 0.169388
vt 0.112224 0.153715
vt 0.114635 0.137276
vt 0.074193 0.152181
vt 0.036545 0.135358
vt 0.075289 0.136289
vt 0.033203 0.150263
vt 0.035066 0.166977
vt 0.073042 0.170375
vt 0.298515 0.472640
vt 0.310382 0.479359
vt 0.301681 0.486350
vt 0.310227 0.469201
vt 0.312416 0.496595
vt 0.306283 0.496743
vt 0.206561 0.109023
vt 0.219110 0.110393
vt 0.207602 0.115051
vt 0.217411 0.106283
vt 0.321457 0.472782
vt 0.332232 0.476752
vt 0.319777 0.484856
vt 0.328440 0.466386
vt 0.332345 0.464393
vt 0.221028 0.119983
vt 0.207821 0.119545
vt 0.188916 0.115051
vt 0.189244 0.122339
vt 0.188368 0.106228
vt 0.170722 0.124422
vt 0.170338 0.114832
vt 0.145953 0.127490
vt 0.143103 0.114887
vt 0.169790 0.103872
vt 0.144637 0.102502
vt 0.117895 0.099269
vt 0.117676 0.114941
vt 0.120087 0.131381
vt 0.079645 0.116476
vt 0.041998 0.133299
vt 0.038655 0.118394
vt 0.080741 0.132368
vt 0.040518 0.101680
vt 0.078494 0.098282
vt 0.318281 0.495425
vt 0.215576 0.148674
vn 0.533200 -0.106700 0.839200
vn -0.157900 -0.479200 0.863400
vn 0.115600 -0.065000 0.991200
vn 0.952100 -0.243800 -0.184700
vn -0.514300 0.754100 0.408500
vn -0.597800 0.271600 0.754300
vn -0.519900 0.378800 0.765600
vn -0.292500 0.897200 0.330900
vn -0.678500 0.533900 0.504600
vn -0.742700 0.299700 0.598800
vn 0.033700 0.725500 0.687400
vn -0.337400 0.920700 0.196000
vn -0.628600 0.708300 0.321100
vn -0.578900 -0.170200 0.797400
vn -0.621600 -0.081700 0.779100
vn -0.458700 -0.241400 0.855200
vn -0.843200 0.007800 0.537600
vn -0.311000 0.083300 0.946800
vn -0.234000 0.002200 0.972200
vn 0.133400 -0.067900 0.988700
vn 0.410400 -0.043600 0.910800
vn -0.176200 0.031400 0.983900
vn 0.090800 -0.009900 0.995800
vn -0.150200 0.102400 0.983300
vn 0.075800 0.065600 0.995000
vn 0.324200 -0.005500 0.946000
vn 0.310300 0.055200 0.949000
vn 0.249000 0.083900 0.964900
vn 0.057000 0.080600 0.995100
vn -0.133500 0.098100 0.986200
vn 0.017600 0.082800 0.996400
vn -0.165900 0.075700 0.983200
vn -0.199700 0.022000 0.979600
vn -0.039000 0.008800 0.999200
vn 0.131500 0.013700 0.991200
vn 0.194200 0.087100 0.977100
vn -0.008100 0.880300 0.474300
vn 0.008000 -0.776900 0.629600
vn 0.001400 -0.157000 0.987600
vn 0.039000 -0.983000 -0.179300
vn -0.003200 0.398300 0.917300
vn -0.534200 -0.098600 0.839600
vn -0.116200 -0.068100 0.990900
vn 0.165000 -0.470900 0.866600
vn -0.959500 -0.231100 -0.161300
vn 0.734600 0.402600 0.546100
vn 0.295500 0.761600 0.576700
vn 0.513200 0.386100 0.766500
vn 0.591400 0.279400 0.756400
vn 0.735600 0.285600 0.614300
vn 0.824700 -0.022200 0.565200
vn 0.581000 -0.162700 0.797500
vn 0.861000 -0.374700 0.344000
vn 0.621700 -0.074600 0.779700
vn 0.895600 -0.197600 0.398600
vn 0.317600 0.086300 0.944300
vn -0.133200 -0.068700 0.988700
vn 0.237200 0.002000 0.971500
vn -0.410100 -0.048400 0.910800
vn 0.168000 0.031400 0.985300
vn -0.094500 -0.011900 0.995500
vn -0.081700 0.062900 0.994700
vn 0.142500 0.103500 0.984400
vn -0.329400 -0.009600 0.944100
vn -0.311400 0.046600 0.949100
vn -0.254800 0.079000 0.963800
vn -0.064500 0.079300 0.994800
vn 0.126000 0.100700 0.986900
vn -0.025600 0.082300 0.996300
vn 0.032100 0.008900 0.999400
vn 0.191100 0.023800 0.981300
vn 0.157200 0.077500 0.984500
vn -0.137700 0.012100 0.990400
vn -0.202100 0.084400 0.975700
vn 0.005900 0.089600 -0.996000
vn -0.124600 0.116500 -0.985300
vn -0.190800 0.931100 -0.311000
vn -0.831800 0.238500 -0.501300
vn -0.841200 -0.157200 -0.517400
vn -0.126500 0.073700 -0.989200
vn -0.360800 0.133400 -0.923100
vn 0.079500 0.077800 -0.993800
vn -0.293900 0.075600 -0.952900
vn -0.089600 0.010100 -0.995900
vn -0.200200 -0.014400 -0.979700
vn -0.075500 -0.065600 -0.995000
vn 0.098200 -0.002700 -0.995200
vn 0.041800 -0.063800 -0.997100
vn 0.054200 -0.086600 -0.994800
vn -0.057100 -0.080700 -0.995100
vn -0.177000 -0.054900 -0.982700
vn -0.017700 -0.082800 -0.996400
vn -0.087800 -0.113100 -0.989700
vn -0.134500 -0.062300 -0.989000
vn 0.029900 -0.136300 -0.990200
vn 0.112900 -0.140400 -0.983600
vn 0.070500 -0.104400 -0.992000
vn 0.576500 0.537400 -0.615500
vn -0.007500 0.787300 -0.616600
vn -0.007500 0.592200 -0.805800
vn -0.034200 0.988900 -0.144600
vn 0.001700 0.104500 -0.994500
vn -0.098100 0.506000 -0.856900
vn 0.080100 0.091300 -0.992600
vn 0.839400 0.258200 -0.478300
vn -0.512700 0.484200 -0.709000
vn 0.196800 0.085700 -0.976700
vn -0.609800 0.249400 -0.752300
vn -0.670700 0.242300 -0.701000
vn 0.477400 0.110100 -0.871800
vn 0.128500 0.074900 -0.988900
vn 0.361800 0.133900 -0.922600
vn -0.078600 0.075300 -0.994100
vn 0.292900 0.077200 -0.953000
vn 0.094800 0.011800 -0.995400
vn 0.206900 -0.009900 -0.978300
vn 0.081800 -0.062600 -0.994700
vn -0.097700 -0.002300 -0.995200
vn -0.036000 -0.062600 -0.997400
vn -0.045700 -0.087000 -0.995200
vn 0.064500 -0.079200 -0.994800
vn 0.184800 -0.050900 -0.981500
vn 0.025800 -0.082200 -0.996300
vn 0.096100 -0.111800 -0.989100
vn -0.021400 -0.136300 -0.990400
vn 0.142000 -0.060400 -0.988000
vn -0.104900 -0.141500 -0.984400
vn -0.061600 -0.105300 -0.992500
usemtl None
s 1
f 3/1/1 4/2/2 5/3/3
f 4/2/2 3/1/1 6/4/4
f 8/5/5 9/6/6 10/7/7
f 8/5/5 10/7/7 11/8/8
f 8/5/5 12/9/9 7/10/10
f 8/5/5 7/10/10 9/6/6
f 13/11/11 2/12/12 11/8/8
f 11/8/8 2/12/12 8/5/5
f 14/13/13 12/9/9 8/5/5
f 14/13/13 8/5/5 2/12/12
f 15/14/14 16/15/15 1/16/16
f 15/14/14 1/16/16 4/17/2
f 10/7/7 9/6/6 16/15/15
f 10/7/7 16/15/15 15/14/14
f 1/16/16 16/15/15 17/18/17
f 9/6/6 7/10/10 17/18/17
f 9/6/6 17/18/17 16/15/15
f 1/19/16 18/20/18 5/3/3
f 1/19/16 5/3/3 4/2/2
f 18/20/18 19/21/19 20/22/20
f 18/20/18 20/22/20 5/3/3
f 3/1/1 5/3/3 20/22/20
f 3/1/1 20/22/20 21/23/21
f 22/24/22 23/25/23 20/22/20
f 22/24/22 20/22/20 19/21/19
f 23/25/23 22/24/22 24/26/24
f 23/25/23 24/26/24 25/27/25
f 21/23/21 20/22/20 23/25/23
f 21/23/21 23/25/23 26/28/26
f 27/29/27 26/28/26 23/25/23
f 27/29/27 23/25/23 25/27/25
f 28/30/28 27/29/27 25/27/25
f 28/30/28 25/27/25 29/31/29
f 25/27/25 24/26/24 30/32/30
f 25/27/25 30/32/30 29/31/29
f 31/33/31 32/34/32 33/35/33
f 31/33/31 33/35/33 34/36/34
f 35/37/35 36/38/36 31/33/31
f 35/37/35 31/33/31 34/36/34
f 32/34/32 31/33/31 29/31/29
f 32/34/32 29/31/29 30/32/30
f 28/30/28 29/31/29 31/33/31
f 28/30/28 31/33/31 36/38/36
f 13/11/11 11/8/8 37/39/37
f 15/14/14 4/17/2 38/40/38
f 15/14/14 38/40/38 39/41/39
f 4/17/2 6/42/4 40/43/40
f 4/17/2 40/43/40 38/40/38
f 10/7/7 41/44/41 37/39/37
f 10/7/7 37/39/37 11/8/8
f 15/14/14 39/41/39 41/44/41
f 15/14/14 41/44/41 10/7/7
f 43/45/42 44/46/43 45/47/44
f 45/47/44 46/48/45 43/45/42
f 48/49/46 49/50/47 50/51/48
f 48/49/46 50/51/48 51/52/49
f 48/49/46 51/52/49 47/53/50
f 48/49/46 47/53/50 52/54/51
f 53/55/52 45/56/44 42/57/53
f 53/55/52 42/57/53 54/58/54
f 50/51/48 53/55/52 54/58/54
f 50/51/48 54/58/54 51/52/49
f 42/57/53 55/59/55 54/58/54
f 51/52/49 54/58/54 55/59/55
f 51/52/49 55/59/55 47/53/50
f 42/60/53 45/47/44 44/46/43
f 42/60/53 44/46/43 56/61/56
f 56/61/56 44/46/43 57/62/57
f 56/61/56 57/62/57 58/63/58
f 43/45/42 59/64/59 57/62/57
f 43/45/42 57/62/57 44/46/43
f 60/65/60 58/63/58 57/62/57
f 60/65/60 57/62/57 61/66/61
f 61/66/61 62/67/62 63/68/63
f 61/66/61 63/68/63 60/65/60
f 59/64/59 64/69/64 61/66/61
f 59/64/59 61/66/61 57/62/57
f 65/70/65 62/67/62 61/66/61
f 65/70/65 61/66/61 64/69/64
f 66/71/66 67/72/67 62/67/62
f 66/71/66 62/67/62 65/70/65
f 62/67/62 67/72/67 68/73/68
f 62/67/62 68/73/68 63/68/63
f 69/74/69 70/75/70 71/76/71
f 69/74/69 71/76/71 72/77/72
f 73/78/73 70/75/70 69/74/69
f 73/78/73 69/74/69 74/79/74
f 72/77/72 68/73/68 67/72/67
f 72/77/72 67/72/67 69/74/69
f 66/71/66 74/79/74 69/74/69
f 66/71/66 69/74/69 67/72/67
f 13/11/11 37/39/37 49/50/47
f 53/55/52 39/41/39 38/40/38
f 53/55/52 38/40/38 45/56/44
f 45/56/44 38/40/38 40/43/40
f 45/56/44 40/43/40 46/80/45
f 50/51/48 49/50/47 37/39/37
f 50/51/48 37/39/37 41/44/41
f 53/55/52 50/51/48 41/44/41
f 53/55/52 41/44/41 39/41/39
f 75/81/75 76/82/76 77/83/77
f 77/83/77 78/84/78 75/81/75
f 83/85/79 84/86/80 85/87/81
f 83/85/79 76/82/76 84/86/80
f 75/81/75 84/86/80 76/82/76
f 75/81/75 86/88/82 84/86/80
f 87/89/83 84/86/80 88/90/84
f 87/89/83 85/87/81 84/86/80
f 88/90/84 89/91/85 87/89/83
f 88/90/84 90/92/86 89/91/85
f 86/88/82 88/90/84 84/86/80
f 86/88/82 91/93/87 88/90/84
f 92/94/88 88/90/84 91/93/87
f 92/94/88 90/92/86 88/90/84
f 93/95/89 90/92/86 92/94/88
f 93/95/89 94/96/90 90/92/86
f 90/92/86 95/97/91 89/91/85
f 90/92/86 94/96/90 95/97/91
f 96/98/92 97/99/93 98/100/94
f 96/98/92 99/101/95 97/99/93
f 100/102/96 96/98/92 101/103/97
f 100/102/96 99/101/95 96/98/92
f 98/100/94 94/96/90 96/98/92
f 98/100/94 95/97/91 94/96/90
f 93/95/89 96/98/92 94/96/90
f 93/95/89 101/103/97 96/98/92
f 79/104/98 102/105/99 77/106/77
f 79/104/98 103/107/100 102/105/99
f 77/106/77 104/108/101 78/109/78
f 77/106/77 102/105/99 104/108/101
f 106/110/102 107/111/103 108/112/104
f 107/111/103 106/110/102 109/113/105
f 110/114/106 105/115/107 107/116/103
f 110/114/106 111/117/108 105/115/107
f 105/115/107 111/117/108 113/118/109
f 105/119/107 108/112/104 107/111/103
f 105/119/107 114/120/110 108/112/104
f 114/120/110 115/121/111 108/112/104
f 114/120/110 116/122/112 115/121/111
f 106/110/102 115/121/111 117/123/113
f 106/110/102 108/112/104 115/121/111
f 119/124/114 115/121/111 116/122/112
f 119/124/114 120/125/115 115/121/111
f 120/125/115 121/126/116 122/127/117
f 120/125/115 119/124/114 121/126/116
f 117/123/113 120/125/115 123/128/118
f 117/123/113 115/121/111 120/125/115
f 124/129/119 120/125/115 122/127/117
f 124/129/119 123/128/118 120/125/115
f 125/130/120 122/127/117 126/131/121
f 125/130/120 124/129/119 122/127/117
f 122/127/117 127/132/122 126/131/121
f 122/127/117 121/126/116 127/132/122
f 128/133/123 129/134/124 130/135/125
f 128/133/123 131/136/126 129/134/124
f 132/137/127 128/133/123 130/135/125
f 132/137/127 133/138/128 128/133/123
f 131/136/126 126/131/121 127/132/122
f 131/136/126 128/133/123 126/131/121
f 125/130/120 128/133/123 133/138/128
f 125/130/120 126/131/121 128/133/123
f 110/114/106 102/105/99 103/107/100
f 110/114/106 107/116/103 102/105/99
f 107/116/103 104/108/101 102/105/99
f 107/116/103 109/139/105 104/108/101
f 78/84/78 6/84/4 75/81/75
f 75/81/75 6/84/4 3/81/1
f 1/140/16 83/85/79 18/85/18
f 85/87/81 19/87/19 83/85/79
f 83/85/79 19/87/19 18/85/18
f 86/88/82 75/81/75 21/88/21
f 21/88/21 75/81/75 3/81/1
f 87/89/83 22/89/22 85/87/81
f 85/87/81 22/89/22 19/87/19
f 87/89/83 89/91/85 22/89/22
f 22/89/22 89/91/85 24/91/24
f 91/93/87 86/88/82 26/93/26
f 26/93/26 86/88/82 21/88/21
f 92/94/88 91/93/87 27/94/27
f 27/94/27 91/93/87 26/93/26
f 92/94/88 27/94/27 93/95/89
f 93/95/89 27/94/27 28/95/28
f 89/91/85 95/97/91 24/91/24
f 24/91/24 95/97/91 30/97/30
f 97/99/93 33/99/33 98/100/94
f 98/100/94 33/99/33 32/100/32
f 97/99/93 99/101/95 33/99/33
f 33/99/33 99/101/95 34/101/34
f 101/103/97 36/103/36 100/102/96
f 100/102/96 36/103/36 35/102/35
f 99/101/95 100/102/96 34/101/34
f 34/101/34 100/102/96 35/102/35
f 95/97/91 98/100/94 30/97/30
f 30/97/30 98/100/94 32/100/32
f 101/103/97 93/95/89 36/103/36
f 36/103/36 93/95/89 28/95/28
f 78/109/78 104/108/101 6/42/4
f 6/42/4 104/108/101 40/43/40
f 109/113/105 106/110/102 46/113/45
f 46/113/45 106/110/102 43/110/42
f 105/119/107 42/119/53 114/120/110
f 114/120/110 42/119/53 56/120/56
f 116/122/112 114/120/110 58/122/58
f 58/122/58 114/120/110 56/120/56
f 106/110/102 117/123/113 43/110/42
f 43/110/42 117/123/113 59/123/59
f 119/124/114 116/122/112 60/124/60
f 60/124/60 116/122/112 58/122/58
f 121/126/116 119/124/114 63/126/63
f 63/126/63 119/124/114 60/124/60
f 117/123/113 123/128/118 59/123/59
f 59/123/59 123/128/118 64/128/64
f 124/129/119 65/129/65 123/128/118
f 123/128/118 65/129/65 64/128/64
f 124/129/119 125/130/120 65/129/65
f 65/129/65 125/130/120 66/130/66
f 121/126/116 63/126/63 127/132/122
f 127/132/122 63/126/63 68/132/68
f 129/134/124 71/134/71 130/135/125
f 130/135/125 71/134/71 70/135/70
f 129/134/124 131/136/126 71/134/71
f 71/134/71 131/136/126 72/136/72
f 130/135/125 70/135/70 132/137/127
f 132/137/127 70/135/70 73/137/73
f 133/138/128 132/137/127 74/138/74
f 74/138/74 132/137/127 73/137/73
f 131/136/126 127/132/122 72/136/72
f 72/136/72 127/132/122 68/132/68
f 125/130/120 133/138/128 66/130/66
f 66/130/66 133/138/128 74/138/74
f 109/139/105 46/80/45 104/108/101
f 104/108/101 46/80/45 40/43/40
l 105 112
l 79 80
l 80 81
l 55 118
